<svg xmlns="http://www.w3.org/2000/svg" xmlns:xlink="http://www.w3.org/1999/xlink" xmlns:lucid="lucid" width="563.03" height="415.9"><g transform="translate(-200 -280)" lucid:page-tab-id="0_0"><path d="M463.66 626.15c-.95-1.06-.34-2.35.67-2.35-.9-1.06.27-2.4 1.44-2.12-.27-1.23 2.07-2.7 2.9-.73.9-.6 2 .78 1.62 1.85 3.66-1 7 6.3 12.13 14.03 1.17 1.67 3.12-1.74 9.53-.4 6.35 1.23 11.14 3.92 15.04-1.78 3.9-5.7 7.9-9.06 9.08-7.66.45.55-.9 3-.9 3 1.96-1.4 2.85 1 .46 4.98 2.06-1.45 1.56 1.96-.06 3.9 2.23-.94 1.8 2.03.28 3.82 1.9-.73 1.95 1.06-1.5 4.7-3.46 3.57-3.85 3.5-6.2 6.8-2.33 3.3-4.6 3.48-3 5.43.5.62-.16 1.18.67 2.24.9 1 3.35 5.42 4.63 5.1 1.22-.35 1.5-3.03 3.4-1.9 1.95 1.1 1.4 2.45 1.4 2.45-.57-.62-.74-.73-1.4-.45-.73.28-2.23-.17-1.84.9.4 1.06 1.67.38 1.67.38s-.18.5.5.5c.66 0 .94-.5.94-.5s-.34 1.9.33 1.57c.6-.28 1.23-.84 1.23-1.3.72.9.5 1.75-.34 2.75-.83.95-1.45.73-2.4 0-.94-.78-1.66-1.9-3.06-1.9-1.4 0-2.67-1.5-4.3-4.08-1.55-2.64-2.38-3.87-3.55-3.47-1.23.4-2.23.6-4.13-.62-1.95-1.22-3.34-.1-3.84.5-.5.63-.72 3.65-2.73 5.44-2.06 1.8-3.34 1.4-6.57 1.4-3.3 0-4.18.4-4.18 1.45 0 1.05.16 2.1-.84 2.67-.33-.4.1-2.4-.72-2-.84.38-1.84.77-2.23 2-.44 1.3-2.55 1.73-2.1 3.13-1.5-1.17-1.85-2.68-.9-3.13 1-.5 2.56-1.34 2.56-2.07-.6-.72-1.4.06-2.56.95-1.17.84-2.28 2.07-1.9 2.97-1.16-.34-1.6-1.96-.94-2.8.72-.84 2.62-1.62 3.95-3.2 1.3-1.55 2.02-1.33 3.52-1 1.5.34 4.13.23 6.47-.05 2.33-.28 4.83-3.02 5.1-4.75-2.05.28-4.28.28-4.78-1.62-.5-1.85-2.12-3.08-6.02-5.3-3.95-2.3-6.24-7.67-7.07-11.3-.9-3.58-1.78-13.14-4.57-13.76-2.5-.6-3.34-.5-4.18-2.34-1.6.9-2.62.16-2.84 1.28-.67-2.07 2.12-3.63 2.12-3.63z" stroke="#000" stroke-opacity="0" stroke-width=".17" fill="#ed6c6b"/><path d="M338.86 487.7c16.4 0 29.7 16.7 29.7 37.27 0 20.58-13.3 37.27-29.7 37.27H249.7c-16.4 0-29.7-16.7-29.7-37.27 0-20.58 13.3-37.27 29.7-37.27z" stroke="#ed6c6b" fill-opacity="0"/><use xlink:href="#a" transform="matrix(1,0,0,1,225,492.70384671344317) translate(15.4912109375 37.896484375)"/><path d="M538.86 300c16.4 0 29.7 16.7 29.7 37.27 0 20.58-13.3 37.27-29.7 37.27H449.7c-16.4 0-29.7-16.7-29.7-37.27 0-20.58 13.3-37.27 29.7-37.27z" stroke="#ed6c6b" fill-opacity="0"/><use xlink:href="#b" transform="matrix(1,0,0,1,425,305) translate(20.89208984375 37.896484375)"/><path d="M683.96 421.03l2.14 6.13 1.9 6.34 1.68 6.52 1.42 6.68 1.16 6.84.88 6.97.12 1.5-1 .07-.12-1.45-.87-6.93-1.15-6.8-1.4-6.66-1.67-6.47-1.9-6.3-2.13-6.1-.53-1.34h1.07m-109.14-83.15l5.2.33 5.08.54 4.96.73 4.84.92 4.73 1.1 4.64 1.3 4.54 1.48 4.48 1.66 4.38 1.84 4.3 2.02 4.24 2.22 4.16 2.4 4.1 2.6 4 2.8 3.95 2.98 3.88 3.2 3.8 3.42 3.7 3.63 3.63 3.86 3.53 4.1 3.42 4.3 3.3 4.55 3.18 4.78 3.03 5.02 1.86 3.38h-1.14l-1.58-2.88-3.02-4.98-3.15-4.75-3.28-4.5-3.4-4.3-3.5-4.04-3.58-3.83-3.68-3.6-3.77-3.4-3.84-3.16-3.92-2.98-4-2.77-4.04-2.58-4.12-2.38-4.2-2.2-4.27-2-4.34-1.83-4.4-1.65-4.52-1.46-4.6-1.3-4.7-1.1-4.8-.9-4.9-.73-5.03-.53-5.17-.32-4.82-.1.02-1" fill="#fff"/><path d="M569.6 336.78l-.02 1h-.54l.03-.5-.02-.5M693.5 476.77l-5.34-14.02 9.26-.45z" fill="#fff"/><path d="M693.57 478.4l-6.12-16.1 10.63-.54m-9.2 1.46l4.53 11.94 3.36-12.33" fill="#fff"/><use xlink:href="#c" transform="matrix(1,0,0,1,614.4459258141417,402.03188280178176) translate(0.0049999999999954525 14.396484375)"/><path d="M693.5 571.94l-.08 3.45-.24 3.8-.4 3.7-.53 3.62-.67 3.52-.8 3.45-.95 3.37-1.08 3.33-1.23 3.3-1.37 3.25-1.52 3.23-1.67 3.2-1.85 3.2-2.02 3.2-2.22 3.2-2.43 3.2-2.66 3.2-2.92 3.25-3.2 3.26-3.5 3.27-3.83 3.3-4.2 3.35-4.65 3.37-5.1 3.38-5.65 3.4-6.22 3.43-6.88 3.42-7.6 3.38-8.38 3.32-9.26 3.22-10.17 3.07-11.14 2.87-12.13 2.57-13.1 2.2-13.98 1.78-14.74 1.23-15.3.64h-15.6l-15.66-.67-15.4-1.3-14.9-1.87-14.17-2.4-13.3-2.82-12.35-3.17-11.37-3.43-10.38-3.6-9.44-3.75-8.55-3.8-7.74-3.85-7-3.85-6.3-3.82-5.73-3.8-5.15-3.75-4.68-3.7-4.25-3.67-3.84-3.6-3.5-3.58-3.18-3.53-2.9-3.5-2.6-3.45-2.4-3.43-2.17-3.42-1.97-3.4-1.78-3.4-1.6-3.4-1.43-3.43-1.28-3.44-1.13-3.46-.97-3.5-.84-3.55-.48-2.54" stroke="#fff" fill="none"/><path d="M694 571.97l-1-.02v-.48l1-.07" fill="#fff"/><path d="M294.43 564.35l5.9 13.8-9.24.82z" stroke="#fff" fill="#fff"/><path d="M304.8 426.54l-2.2 6.85-2 7.1-1.72 7.35-1.44 7.57-1.15 7.75-.84 7.9-.5 8.03-.16 7.6h-1l.16-7.64.5-8.06.84-7.95 1.15-7.8 1.45-7.6 1.73-7.4 2-7.15 2.23-6.87h1.07m98.3-87.36l-1.38.17-4.73.8-4.6.98-4.52 1.16-4.42 1.34-4.33 1.5-4.25 1.7-4.18 1.85-4.12 2.04-4.05 2.24-4 2.4-3.92 2.63-3.9 2.82-3.8 3.02-3.78 3.26-3.72 3.5-3.65 3.72-3.58 3.98-3.52 4.24-3.43 4.52-3.33 4.8-3.23 5.1-3.12 5.38-2.97 5.68-.24.53h-1.1l.45-.97 3-5.72 3.13-5.43 3.26-5.1 3.35-4.85 3.45-4.55 3.54-4.28 3.6-4 3.7-3.77 3.74-3.52 3.8-3.28 3.86-3.06 3.92-2.85 3.97-2.64 4.02-2.43 4.1-2.25 4.14-2.06 4.2-1.88 4.3-1.7 4.37-1.52 4.46-1.34 4.55-1.17 4.66-1 4.77-.8 1.4-.17" fill="#fff"/><path d="M294.8 486.7v.5h-1v-.52M417.9 337.38l-13.94 5.6-.62-9.26z" fill="#fff"/><path d="M419.5 337.27l-16 6.42-.7-10.64m1.62 9.18l11.85-4.75-12.4-3.13" fill="#fff"/><use xlink:href="#d" transform="matrix(1,0,0,1,248.45414090282907,408.2293642108735) translate(0.005000000000002558 14.396484375)"/><path d="M691.27 478.57c-3.05.56-6.6 2.43-9.96 5.3-6.9 5.88-13.88 15.4-18.48 25.36-5.57 11.74-7.5 23.2-5.72 33.07.96 5.68 3.27 10.9 6.68 15.28 1.5 1.96 4 4.47 5.95 5.96 4.16 3.26 9.28 5.7 14.4 6.9 8.1 1.95 16.87 1.3 24.37-1.77 12.04-4.85 20.13-15.1 21.84-27.95.52-3.92.52-8.85-.15-12.86-.9-5.96-2.68-11.74-5.43-17.9-.96-2.04-3.12-6.23-4.38-8.2-5.58-9.3-12.12-16.66-18.3-20.58-2.07-1.3-4.52-2.33-6.45-2.7-1.1-.2-3.27-.1-4.38.1z" stroke="#000" stroke-opacity="0" stroke-width=".05" fill="#ed6c6b"/><path d="M721.43 506.34c10.26 0 18.57 6.25 18.57 13.97 0 7.73-8.3 14-18.57 14H665.7c-10.24 0-18.56-6.27-18.56-14 0-7.7 8.32-13.96 18.57-13.96z" stroke="#000" stroke-opacity="0" fill="#211f28"/><use xlink:href="#e" transform="matrix(1,0,0,1,652.1428571428571,511.3376074593813) translate(-7.10791015625 14.396484375)"/><defs><path fill="#fff" d="M622-1349c296 4 497 117 497 404 0 282-193 424-485 431H353V0H162v-1349h460zm-15 684c195-3 320-88 320-277 0-184-129-255-328-254H353v531h254" id="f"/><path fill="#fff" d="M615-1102c343 0 484 203 482 560-1 347-147 562-488 562-336 0-475-219-479-562-4-349 156-560 485-560zm-8 989c240 0 301-180 301-429 0-245-55-427-290-427-236 0-299 181-299 427 0 243 61 429 288 429" id="g"/><path fill="#fff" d="M698-1104c312 3 392 244 392 558 0 315-82 566-392 566-169 0-277-65-331-184h-5c8 188 2 394 4 589H185V-858c0-76-1-156-6-224h175c6 52 9 120 10 178h4c58-122 150-202 330-200zm-49 991c225 0 255-203 255-433 0-225-32-419-253-419-236 0-285 192-285 441 0 237 53 411 283 411" id="h"/><path fill="#fff" d="M528 20c-247 0-343-132-343-381v-721h180v686c-4 177 45 284 224 277 194-8 279-136 279-336v-627h181c3 360-6 732 6 1082H885c-4-54-7-126-8-185h-3C809-64 714 20 528 20" id="i"/><path fill="#fff" d="M736-142h380V0H134v-142h422v-1200H267v-142h469v1342" id="j"/><path fill="#fff" d="M1000-272c3 95 12 159 101 161 21 0 41-3 59-7V-6c-44 10-86 16-139 16-141 2-191-84-197-217h-6C748-76 648 20 446 20c-207 0-318-120-318-322 0-266 194-348 454-354l236-4c12-191-40-305-222-305-140 0-220 47-232 172l-188-17c33-204 181-292 423-292 255 0 401 118 401 364v466zm-683-27c0 109 63 184 175 182 166-3 259-96 306-217 24-65 20-120 20-200-232 7-501-28-501 235" id="k"/><path fill="#fff" d="M682 16c-209 0-323-80-324-285v-671H190v-142h170l58-282h120v282h432v142H538v652c2 114 60 155 182 155 106 0 209-16 297-34v137C921-4 806 16 682 16" id="l"/><path fill="#fff" d="M745-142h380V0H143v-142h422v-798H246v-142h499v940zM545-1292v-192h200v192H545" id="m"/><path fill="#fff" d="M706-1102c241 0 344 136 343 381V0H868v-695c1-168-57-273-220-268-190 6-283 138-283 336V0H185c-3-360 6-732-6-1082h170c4 54 7 126 8 185h3c63-121 164-204 346-205" id="n"/><g id="a"><use transform="matrix(0.0087890625,0,0,0.0087890625,0,0)" xlink:href="#f"/><use transform="matrix(0.0087890625,0,0,0.0087890625,10.8017578125,0)" xlink:href="#g"/><use transform="matrix(0.0087890625,0,0,0.0087890625,21.603515625,0)" xlink:href="#h"/><use transform="matrix(0.0087890625,0,0,0.0087890625,32.4052734375,0)" xlink:href="#i"/><use transform="matrix(0.0087890625,0,0,0.0087890625,43.20703125,0)" xlink:href="#j"/><use transform="matrix(0.0087890625,0,0,0.0087890625,54.0087890625,0)" xlink:href="#k"/><use transform="matrix(0.0087890625,0,0,0.0087890625,64.810546875,0)" xlink:href="#l"/><use transform="matrix(0.0087890625,0,0,0.0087890625,75.6123046875,0)" xlink:href="#m"/><use transform="matrix(0.0087890625,0,0,0.0087890625,86.4140625,0)" xlink:href="#g"/><use transform="matrix(0.0087890625,0,0,0.0087890625,97.2158203125,0)" xlink:href="#n"/></g><path fill="#fff" d="M614-1226c-167 1-283 53-283 213 0 183 186 193 334 234 230 63 463 120 463 409 0 286-219 387-518 390C309 23 131-98 79-338l185-37c34 165 149 248 351 246 184-2 324-58 324-238 0-203-207-221-372-266-210-57-422-111-422-377 0-267 201-356 470-360 279-5 430 101 480 324l-188 33c-28-141-121-215-293-213" id="o"/><path fill="#fff" d="M839-1102c70 0 148 7 206 17v167c-112-18-268-36-363 15-129 69-208 203-208 395V0H294c-10-367 32-789-52-1082h171c21 75 41 161 48 250h5c67-152 152-270 373-270" id="p"/><path fill="#fff" d="M715 0H502L69-1082h202c94 253 197 500 285 758 19 57 36 126 52 183 96-335 234-626 350-941h201" id="q"/><path fill="#fff" d="M873-819c-18-114-119-146-250-146-163 0-245 50-245 151 0 151 170 148 294 185 182 54 388 94 388 320 0 240-189 325-439 329-245 4-410-69-454-268l159-31c24 133 136 168 295 165 144-2 270-31 270-171 0-164-195-160-331-202-167-52-350-87-350-299 0-218 173-315 413-313 220 2 373 77 412 260" id="r"/><g id="b"><use transform="matrix(0.0087890625,0,0,0.0087890625,0,0)" xlink:href="#o"/><use transform="matrix(0.0087890625,0,0,0.0087890625,10.8017578125,0)" xlink:href="#i"/><use transform="matrix(0.0087890625,0,0,0.0087890625,21.603515625,0)" xlink:href="#p"/><use transform="matrix(0.0087890625,0,0,0.0087890625,32.4052734375,0)" xlink:href="#q"/><use transform="matrix(0.0087890625,0,0,0.0087890625,43.20703125,0)" xlink:href="#m"/><use transform="matrix(0.0087890625,0,0,0.0087890625,54.0087890625,0)" xlink:href="#q"/><use transform="matrix(0.0087890625,0,0,0.0087890625,64.810546875,0)" xlink:href="#g"/><use transform="matrix(0.0087890625,0,0,0.0087890625,75.6123046875,0)" xlink:href="#p"/><use transform="matrix(0.0087890625,0,0,0.0087890625,86.4140625,0)" xlink:href="#r"/></g><path fill="#fff" d="M1121-976c0 225-142 341-344 379L1177 0H957L591-575H353V0H162v-1349h482c281 3 477 100 477 373zM633-726c181-1 296-73 296-247 0-149-101-223-304-223H353v470h280" id="s"/><path fill="#fff" d="M617-1102c355 0 481 238 477 599H322c5 222 84 388 301 388 144 0 244-59 284-166l158 45C1002-72 854 20 623 20c-342 0-490-220-490-568 0-346 151-554 484-554zm291 461c-18-192-90-328-289-328-194 0-287 128-295 328h584" id="t"/><path fill="#fff" d="M865-914c-3-187-2-380-2-570h180v1261c0 76 1 155 6 223H877c-8-49-9-116-10-174h-5C801-44 708 26 530 26c-135 0-234-46-297-139s-95-232-95-419c0-377 131-566 392-566 176 0 271 63 335 184zm-286-51c-222 0-255 197-255 427 0 229 31 425 253 425 237 0 286-195 286-441 0-238-52-411-284-411" id="u"/><path fill="#fff" d="M631 20c-350 0-501-215-501-562 0-355 162-560 502-560 250 0 399 118 446 323l-192 14c-23-124-109-196-262-196-242 0-305 171-305 415 1 245 61 427 304 427 151 0 248-77 267-215l190 12C1039-107 883 20 631 20" id="v"/><g id="c"><use transform="matrix(0.0087890625,0,0,0.0087890625,0,0)" xlink:href="#s"/><use transform="matrix(0.0087890625,0,0,0.0087890625,10.8017578125,0)" xlink:href="#t"/><use transform="matrix(0.0087890625,0,0,0.0087890625,21.603515625,0)" xlink:href="#h"/><use transform="matrix(0.0087890625,0,0,0.0087890625,32.4052734375,0)" xlink:href="#p"/><use transform="matrix(0.0087890625,0,0,0.0087890625,43.20703125,0)" xlink:href="#g"/><use transform="matrix(0.0087890625,0,0,0.0087890625,54.0087890625,0)" xlink:href="#u"/><use transform="matrix(0.0087890625,0,0,0.0087890625,64.810546875,0)" xlink:href="#i"/><use transform="matrix(0.0087890625,0,0,0.0087890625,75.6123046875,0)" xlink:href="#v"/><use transform="matrix(0.0087890625,0,0,0.0087890625,86.4140625,0)" xlink:href="#l"/><use transform="matrix(0.0087890625,0,0,0.0087890625,97.2158203125,0)" xlink:href="#m"/><use transform="matrix(0.0087890625,0,0,0.0087890625,108.017578125,0)" xlink:href="#g"/><use transform="matrix(0.0087890625,0,0,0.0087890625,118.8193359375,0)" xlink:href="#n"/></g><path fill="#fff" d="M162 0v-1349h919v156H353v422h668v154H353v461h769V0H162" id="w"/><path fill="#fff" d="M904-1102c199 0 220 177 220 381V0H956v-686c-3-114 0-215-60-264-70-33-125-4-158 71-26 56-39 140-39 252V0H531v-686c-3-114-1-215-61-264-78-41-136 24-157 84-24 69-39 159-39 259V0H105c-3-360 6-732-6-1082h149c6 50 3 123 8 175 36-100 83-195 216-195 135 0 166 79 196 196 42-105 93-196 236-196" id="x"/><g id="d"><use transform="matrix(0.0087890625,0,0,0.0087890625,0,0)" xlink:href="#w"/><use transform="matrix(0.0087890625,0,0,0.0087890625,10.8017578125,0)" xlink:href="#n"/><use transform="matrix(0.0087890625,0,0,0.0087890625,21.603515625,0)" xlink:href="#q"/><use transform="matrix(0.0087890625,0,0,0.0087890625,32.4052734375,0)" xlink:href="#m"/><use transform="matrix(0.0087890625,0,0,0.0087890625,43.20703125,0)" xlink:href="#p"/><use transform="matrix(0.0087890625,0,0,0.0087890625,54.0087890625,0)" xlink:href="#g"/><use transform="matrix(0.0087890625,0,0,0.0087890625,64.810546875,0)" xlink:href="#n"/><use transform="matrix(0.0087890625,0,0,0.0087890625,75.6123046875,0)" xlink:href="#x"/><use transform="matrix(0.0087890625,0,0,0.0087890625,86.4140625,0)" xlink:href="#t"/><use transform="matrix(0.0087890625,0,0,0.0087890625,97.2158203125,0)" xlink:href="#n"/><use transform="matrix(0.0087890625,0,0,0.0087890625,108.017578125,0)" xlink:href="#l"/></g><path fill="#fff" d="M285-1169c8 382 2 780 4 1169H129v-1349h237c86 239 188 461 253 720 69-258 169-481 255-720h225V0H937c2-390-5-788 6-1169-75 255-170 488-259 729H547c-90-240-185-475-262-729" id="y"/><g id="e"><use transform="matrix(0.0087890625,0,0,0.0087890625,0,0)" xlink:href="#y"/><use transform="matrix(0.0087890625,0,0,0.0087890625,10.8017578125,0)" xlink:href="#i"/><use transform="matrix(0.0087890625,0,0,0.0087890625,21.603515625,0)" xlink:href="#l"/><use transform="matrix(0.0087890625,0,0,0.0087890625,32.4052734375,0)" xlink:href="#k"/><use transform="matrix(0.0087890625,0,0,0.0087890625,43.20703125,0)" xlink:href="#l"/><use transform="matrix(0.0087890625,0,0,0.0087890625,54.0087890625,0)" xlink:href="#m"/><use transform="matrix(0.0087890625,0,0,0.0087890625,64.810546875,0)" xlink:href="#g"/><use transform="matrix(0.0087890625,0,0,0.0087890625,75.6123046875,0)" xlink:href="#n"/><use transform="matrix(0.0087890625,0,0,0.0087890625,86.4140625,0)" xlink:href="#r"/></g></defs></g></svg>