<svg xmlns="http://www.w3.org/2000/svg" xmlns:xlink="http://www.w3.org/1999/xlink" xmlns:lucid="lucid" width="520" height="197.67"><g transform="translate(-400 -368.3531597343906)" lucid:page-tab-id="0_0"><path d="M634.4 460c0 2.6-2.1 4.7-4.7 4.7s-4.7-2.1-4.7-4.7 2.1-4.7 4.7-4.7 4.7 2.1 4.7 4.7zM654.4 460c0 2.6-2.1 4.7-4.7 4.7s-4.7-2.1-4.7-4.7 2.1-4.7 4.7-4.7 4.7 2.1 4.7 4.7zM675 460c0 2.6-2.1 4.7-4.7 4.7s-4.7-2.1-4.7-4.7 2.1-4.7 4.7-4.7 4.7 2.1 4.7 4.7z" stroke="#000" stroke-opacity="0" stroke-width="3" fill="#ff6266"/><path d="M805.38 465.26c-1.6-2.9-1.6-7.62 0-10.52l18.6-33.98c1.6-2.9 5.58-5.26 8.9-5.26h36.75c3.3 0 7.3 2.36 8.88 5.26l18.62 33.98c1.6 2.9 1.6 7.62 0 10.52l-18.6 33.98c-1.6 2.9-5.58 5.26-8.9 5.26H832.9c-3.32 0-7.3-2.36-8.9-5.26z" stroke="#ff6266" stroke-width="3" fill-opacity="0"/><use xlink:href="#a" transform="matrix(1,0,0,1,807.5000000000001,420.5) translate(32.66982204861111 44.9296875)"/><path d="M522.9 465.25c-1.6-2.9-1.6-7.6 0-10.5l14.2-25.58c1.6-2.9 5.6-5.24 8.9-5.24h28c3.3 0 7.3 2.35 8.9 5.24l14.2 25.58c1.6 2.9 1.6 7.6 0 10.5l-14.2 25.58c-1.6 2.9-5.6 5.24-8.9 5.24h-28c-3.3 0-7.3-2.35-8.9-5.24z" stroke="#ff6266" stroke-width="3" fill-opacity="0"/><use xlink:href="#b" transform="matrix(1,0,0,1,525,428.9262421939765) translate(23.632929687500003 36.57118055555556)"/><path d="M702.84 465.3c-1.57-2.93-1.57-7.67 0-10.6l13.7-25.5c1.56-2.9 5.52-5.27 8.84-5.27h26.75c3.3 0 7.27 2.36 8.83 5.28l13.7 25.5c1.57 2.93 1.57 7.67 0 10.6l-13.7 25.5c-1.56 2.9-5.52 5.27-8.84 5.27h-26.75c-3.3 0-7.27-2.36-8.83-5.28z" stroke="#ff6266" stroke-width="3" fill-opacity="0"/><use xlink:href="#c" transform="matrix(1,0,0,1,705,428.9262421939765) translate(12.7676953125 36.57118055555556)"/><path d="M422.9 465.25c-1.6-2.9-1.6-7.6 0-10.5l14.2-25.58c1.6-2.9 5.6-5.24 8.9-5.24h28c3.3 0 7.3 2.35 8.9 5.24l14.2 25.58c1.6 2.9 1.6 7.6 0 10.5l-14.2 25.58c-1.6 2.9-5.6 5.24-8.9 5.24h-28c-3.3 0-7.3-2.35-8.9-5.24z" stroke="#ff6266" stroke-width="3" fill-opacity="0"/><use xlink:href="#d" transform="matrix(1,0,0,1,425,428.9262421939765) translate(23.632929687500003 36.57118055555556)"/><path d="M615.47 403.15l1.74 1.9 1.82 2.35 1.9 3 2 3.88 2.08 5.12 2.1 6.9 1.93 9.2.15 1.25-2 .24-.13-1.17-1.9-9.04-2.04-6.73-2-4.96-1.9-3.7-1.82-2.85-1.7-2.22-.63-.7v-2.86m-33.18-1.2l-2.96 1.2-4.48 2.37-3.76 2.5-2.93 2.43-2.17 2.2-1.57 1.98-1.13 1.74-.77 1.53-.53 1.4-.33 1.24-.18 1.16v.15l-2-.1v-.25l.22-1.37.4-1.46.6-1.57.85-1.73 1.23-1.9 1.7-2.14 2.32-2.37 3.08-2.56 3.94-2.62 4.67-2.47 3.8-1.53" fill="#fff"/><path d="M561.05 421.45l-.05.98h-2l.05-1.08M629.44 452.07l-5.8-13.84 9.25-.76z" fill="#fff"/><path d="M629.7 455.3l-7.5-17.95 11.98-1m-9.08 2.77l4.07 9.72 2.43-10.26" fill="#fff"/><use xlink:href="#e" transform="matrix(1,0,0,1,581.8654745556578,388.48178202545046) translate(0 13.506944444444445)"/><path d="M476.42 396.2l-2.98 2.15-3.95 3.83-3.3 4.27-2.46 4.37-1.6 4.2-.88 3.88-.2 2.6-1.98-.15.2-2.74.93-4.15 1.73-4.48 2.6-4.63 3.46-4.5 4.15-4.02 4.27-3.08m35.1-4.26l8.4 1.44 4.93 1.43 3.27 1.34 2.33 1.27 1.76 1.23 1.4 1.22 1.14 1.24.96 1.3.8 1.4.7 1.6.6 1.93.2 1-1.96.37-.17-.9-.54-1.7-.6-1.4-.7-1.2-.83-1.14-1-1.08-1.22-1.07-1.6-1.1-2.13-1.18-3.06-1.26-4.73-1.36-8.18-1.4-1.7-.1v-2" fill="#fff"/><path d="M461.07 421.48l-.07.95h-2l.08-1.1M539.6 421.02l-7-13.26 9.14-1.58z" fill="#fff"/><path d="M540.16 424.2l-9.08-17.2 11.85-2.04m-8.8 3.55l4.92 9.33 1.5-10.43" fill="#fff"/><use xlink:href="#e" transform="matrix(1,0,0,1,476.42410216198806,380.63924958769644) translate(0 13.506944444444445)"/><path d="M748.4 398.53l-2.5 2.8-1.95 2.92-1.6 3.23-1.27 3.77-.93 4.72-.34 5.52-2-.13.36-5.65.98-5 1.37-4 1.72-3.47 2.1-3.15 2.63-2.97H750m36.68-15.23l3.2.4 3.25.74 3.37 1.1 3.5 1.52 3.7 2.04 3.9 2.67 4.16 3.45 4.36 4.38 1.37 1.65-1.56 1.27-1.3-1.58-4.23-4.24-4-3.33-3.75-2.56-3.53-1.94-3.33-1.45-3.2-1.03-3.07-.7-3-.37-3-.1-3 .2-.87.12v-2.02l.65-.1 3.2-.2" fill="#fff"/><path d="M739.8 421.46l-.05.97h-2l.07-1.1M825.23 413.1l-11.82-9.23 7.7-5.18z" fill="#fff"/><path d="M827.03 415.8l-15.32-12 9.97-6.7m-6.56 6.83l8.32 6.5-2.9-10.14" fill="#fff"/><use xlink:href="#e" transform="matrix(1,0,0,1,746.4774508661377,379.3531597343906) translate(0 13.506944444444445)"/><path d="M674.97 412.23l-2 4.75-1.9 12.02.22 25.3h-2l-.24-25.45 1.97-12.42 1.97-4.68h2.32m27.78-19.6l1.44.42.5.2 1.2.7 1.43 1.14 1.75 2 2.4 3.83 2.45 6-1.85.75-2.38-5.84-2.22-3.55-1.53-1.73-1.18-.95-.98-.55-.26-.1-1.14-.34-1.32-.1-.42.03v-.1h-5.85l1.16-.8 3-.93 2.1-.22" fill="#fff"/><path d="M671.3 455.64l-1-.34-1 .12v-1.14l2-.02M718.45 421.18l-9.14-11.9 8.75-3.1z" fill="#fff"/><path d="M719.54 424.23l-11.86-15.42L719 404.8m-8.06 5l6.43 8.35-.3-10.54" fill="#fff"/><use xlink:href="#e" transform="matrix(1,0,0,1,667.8237903061499,393.968800907379) translate(0 13.506944444444445)"/><path d="M592.76 522.7v1.85l-.18.08-.7-.3-.3-.7.3-.7.7-.3zm-3.4-.38l.3.7-.3.72-.7.3-.72-.3-.3-.7.3-.72.7-.3zm-3.93-.6l.3.7-.3.72-.7.3-.7-.3-.3-.7.3-.7.7-.3zm-3.93-.6l.3.72-.3.7-.7.3-.7-.3-.3-.7.3-.7.7-.3zm-3.86-.87l.3.7-.3.72-.7.3-.7-.3-.3-.7.3-.72.7-.3zm-3.58-1.65l.3.7-.3.7-.7.3-.72-.3-.3-.7.3-.7.7-.3zm-3.2-2.33l.3.7-.3.72-.7.28-.7-.3-.3-.7.3-.7.7-.3zm-2.86-2.74l.3.7-.3.72-.7.3-.7-.3-.3-.7.3-.72.7-.3zm52.64-2.43l.3.7-.3.7-.56.24h-.3l-.56-.23-.3-.7.3-.7.7-.3zm2.06-3.4l.3.7-.3.72-.7.3-.7-.3-.3-.7.3-.72.7-.3zm1.4-3.7l.3.7-.3.7-.7.3-.72-.3-.3-.7.3-.7.7-.3zm1.33-3.75l.3.7-.3.7-.7.3-.72-.3-.28-.7.3-.7.7-.3zm1.33-3.74l.3.7-.3.72-.7.3-.7-.3-.3-.7.3-.7.7-.3zm.88-3.86l.3.7-.3.7-.7.3-.72-.3-.3-.7.3-.7.7-.3zm.8-3.9l.28.7-.3.72-.7.3-.7-.3-.3-.7.3-.72.7-.3zm.43-3.94l.3.7-.3.72-.7.3-.7-.3-.3-.7.3-.72.7-.3zm.3-3.96l.3.7-.3.72-.7.3-.72-.3-.3-.7.3-.72.7-.3zm.3-3.96l.28.7-.3.7-.7.3-.7-.3-.3-.7.3-.7.7-.3zm.28-3.96l.3.7-.3.7-.7.3-.7-.3-.3-.7.3-.7.7-.3zm.3-3.96l.3.7-.3.7-.7.3-.72-.3-.3-.7.3-.7.7-.3zm.3-3.96l.28.7-.3.7-.7.3-.7-.3-.3-.7.3-.7.7-.3z" fill="#fff"/><path d="M629.7 464.7l1.02-.12-.1 1.22-2-.15.1-1.3M571.26 511.75l-8.5 3.72-1.46-14.93z" fill="#fff"/><path d="M572.93 512.1l-11.02 4.83-1.9-19.36m3.63 16.43l5.97-2.62-7-7.88" fill="#fff"/><use xlink:href="#f" transform="matrix(1,0,0,1,592.7629015219939,512.7436252998589) translate(0 13.506944444444445)"/><path d="M482.68 536.7l.3.7-.3.72-.7.3-.7-.3-.3-.7.3-.72.7-.3zm4.06-.1l.3.7-.3.72-.7.3-.72-.3-.3-.7.3-.72.7-.3zm-8.1-.08l.3.7-.3.72-.7.3-.7-.3-.3-.7.3-.72.7-.3zm12.15-.02l.26.65v.1l-.27.66-.7.3-.72-.3-.3-.7.3-.7.7-.3zm-16.03-1.15l.3.7-.3.7-.7.3-.7-.3-.3-.7.3-.7.7-.3zm-3.37-2.23l.3.7-.3.72-.7.3-.72-.3-.3-.7.3-.72.7-.3zm-2.76-2.97l.3.7-.3.72-.7.3-.7-.3-.3-.7.3-.72.7-.3zm57.05-2.03l.3.7-.3.72-.7.3-.72-.3-.04-.1v-1.23l.04-.08.7-.3zm-59.2-1.4l.3.7-.3.72-.7.3-.72-.3-.3-.7.3-.72.7-.3zm62.27-1.24l.3.7-.3.72-.7.3-.72-.3-.3-.7.3-.72.7-.3zm-63.96-2.45l.3.7-.3.72-.7.3-.7-.3-.3-.7.3-.72.7-.3zm66.7-.53l.3.7-.3.72-.7.3-.7-.3-.3-.7.3-.72.7-.3zm2.33-3.32l.3.7-.3.7-.7.3-.7-.3-.3-.7.3-.7.7-.3zm-70.27 0l.3.7-.3.7-.7.3-.7-.3-.3-.7.3-.7.7-.3zm72.22-3.56l.3.7-.3.72-.7.3-.7-.3-.3-.7.3-.72.7-.3zm1.6-3.73l.28.7-.3.7-.7.3-.7-.3-.3-.7.3-.7.7-.3zm1.23-3.86l.3.7-.3.7-.7.3-.7-.3-.3-.7.3-.7.7-.3zm.95-3.95l.3.7-.3.7-.7.3-.7-.3-.3-.7.3-.7.7-.3zm.7-4l.3.7-.3.72-.7.3-.7-.3-.3-.7.3-.72.7-.3zm.5-4.03l.3.7-.3.72-.7.28-.72-.3-.3-.7.3-.7.7-.3z" fill="#fff"/><path d="M540.7 496.15l.4.16-.07.63-2-.24.2-1.53M466.43 514.5l-9.23.96 3.14-14.67z" fill="#fff"/><path d="M467.9 515.35l-11.96 1.25 4.06-19.03m-1.53 16.75l6.48-.67-4.28-9.64" fill="#fff"/><use xlink:href="#f" transform="matrix(1,0,0,1,491.0637819726405,526.9251188219513) translate(0 13.506944444444445)"/><path d="M786.77 548.85l.3.7-.3.72-.7.3-.7-.3-.3-.7.3-.72.7-.3zm-3.96-.13l.3.7-.3.7-.7.3-.7-.3-.3-.7.3-.7.7-.3zm7.44-.22v1.83l-.2.1-.72-.3-.3-.7.3-.72.7-.28zm-11.37-.27l.3.7-.3.72-.7.3-.72-.3-.3-.7.3-.72.7-.3zm-3.88-.86l.28.7-.3.72-.7.28-.7-.3-.3-.7.3-.7.7-.3zm-3.8-1.2l.3.7-.3.7-.7.3-.7-.3-.3-.7.3-.7.7-.3zm-3.64-1.57l.3.7-.3.72-.7.3-.72-.3-.3-.7.3-.72.7-.3zm-3.5-1.9l.3.7-.3.72-.7.3-.7-.3-.3-.7.3-.72.7-.3zm-3.28-2.2l.3.7-.3.7-.7.3-.72-.3-.3-.7.3-.7.7-.3zm63.84-2.3l.3.72-.3.7-.7.3-.5-.2v-1.6l.5-.2zm-66.92-.2l.3.7-.3.7-.7.3-.72-.3-.3-.7.3-.7.7-.3zm70.37-1.75l.3.7-.3.7-.7.3-.72-.3-.3-.7.3-.7.7-.3zm-73.23-1l.3.7-.3.7-.7.3-.72-.3-.3-.7.3-.7.7-.3zm76.56-1.16l.3.7-.3.7-.7.3-.72-.3-.3-.7.3-.7.7-.3zm-79.2-1.82l.3.7-.3.7-.7.3-.7-.3-.3-.7.3-.7.7-.3zm82.44-.48l.3.7-.3.72-.7.3-.7-.3-.3-.7.3-.72.7-.3zm3.13-2.45l.3.7-.3.72-.7.3-.72-.3-.3-.7.3-.72.7-.3zm-87.98-.22l.3.7-.3.7-.7.3-.72-.3-.3-.7.3-.7.7-.3zm90.9-2.44l.3.7-.3.7-.7.3-.7-.3-.3-.7.3-.7.7-.3zm-93.08-.9l.3.7-.3.72-.7.3-.72-.3-.3-.7.3-.7.7-.3zm95.86-1.95l.3.7-.3.7-.7.3-.7-.3-.3-.7.3-.7.7-.3zm-97.74-1.54l.3.7-.3.72-.7.3-.7-.3-.3-.7.3-.7.7-.3zM846 520.8l.3.7-.3.72-.7.3-.7-.3-.3-.7.3-.72.7-.3zm-101.92-2.07l.3.7-.3.72-.7.3-.72-.3-.3-.7.3-.7.7-.3zm104.13-1.2l.3.7-.3.7-.7.3-.7-.3-.3-.7.3-.7.7-.3zm1.83-3.54l.3.7-.3.7-.7.3-.7-.3-.3-.7.3-.7.7-.3zm1.3-3.75l.28.72-.28.7-.7.3-.72-.3-.3-.7.3-.7.7-.3zm.6-3.9l.28.7-.28.7-.7.3-.7-.3-.3-.7.3-.7.7-.3z" fill="#fff"/><path d="M852.2 507.06l-2-.07.05-1h2M746.32 514.02l-9.14 1.6 2.12-14.86z" fill="#fff"/><path d="M747.84 514.77L736 516.83l2.75-19.26m-.38 16.82l6.42-1.13-4.94-9.32" fill="#fff"/><use xlink:href="#f" transform="matrix(1,0,0,1,790.2354287999093,537.2415608479644) translate(0 13.506944444444445)"/><path d="M699.16 522.53l-.25.6v-1.2zm2.93-3l.28.7-.3.72-.7.3-.7-.3-.3-.7.3-.72.7-.3zm3.3-2.16l.3.7-.3.7-.7.3-.72-.3-.3-.7.3-.7.7-.3zm3.38-2.06l.3.72-.3.7-.7.3-.72-.3-.3-.7.3-.7.7-.3zm3.47-1.87l.3.7-.3.7-.7.3-.7-.3-.3-.7.3-.7.7-.3zm-45.7-1.9l.3.72-.27.68h-.85v.27l-.58-.24-.3-.7.3-.72.7-.3zm48.7-.67l.3.7-.3.7-.7.3-.72-.3-.3-.7.3-.7.7-.3zm-50.85-2.62l.3.7-.3.7-.7.3-.7-.3-.3-.7.3-.7.7-.3zm52.87-.75l.3.7-.3.7-.7.3-.72-.3-.3-.7.3-.7.7-.3zm-54.38-2.9l.3.7-.3.7-.7.3-.72-.3-.3-.7.3-.7.7-.3zm55.5-.9l.28.72-.3.7-.7.3-.7-.3-.3-.7.3-.7.7-.3zm-56.36-2.97l.3.7-.3.7-.7.3-.72-.3-.3-.7.3-.7.7-.3zm56.85-.94l.3.7-.3.7-.7.3-.72-.3-.3-.7.3-.7.7-.3zm-57.16-3l.3.7-.3.7-.7.3-.7-.3-.3-.7.3-.7.7-.3zm58.08-.83l.3.7-.3.7-.7.3-.72-.3-.3-.7.3-.7.7-.3zm-57.9-3.13l.3.7-.3.72-.7.3-.72-.3-.3-.7.3-.72.7-.3zm.53-3.9l.3.7-.3.7-.7.3-.7-.3-.3-.7.3-.7.7-.3zm.82-3.88l.3.7-.3.72-.7.3-.7-.3-.3-.7.3-.72.7-.3zm1.03-3.82l.3.7-.3.7-.7.3-.72-.3-.3-.7.3-.7.7-.3z" fill="#fff"/><path d="M720.05 496.12l.36.14-.4.86-1.8-.85.5-1.07M668.27 482.67l-8.66-3.3 9.42-11.68z" fill="#fff"/><path d="M669.2 484.1l-11.23-4.3 12.2-15.14m-8.92 14.26l6.1 2.32.52-10.53" fill="#fff"/><use xlink:href="#f" transform="matrix(1,0,0,1,665.7299508278176,512.926053990209) translate(0 13.506944444444445)"/><defs><path fill="#ff6266" d="M839-1335c-182-6-269 67-259 253h491v142H580V0H400v-940H138v-142h262c-15-293 132-408 418-402 94 2 200 7 281 21v145c-75-10-177-14-260-17" id="g"/><path fill="#ff6266" d="M671-1188l264-103 45 132-282 73 185 250-119 72-150-258-156 256-119-72 189-248-280-73 45-134 267 107-12-297h136" id="h"/><g id="a"><use transform="matrix(0.010850694444444444,0,0,0.010850694444444444,0,0)" xlink:href="#g"/><use transform="matrix(0.00759548611111111,0,0,0.00759548611111111,13.335503472222221,-6.220703124999999)" xlink:href="#h"/></g><path fill="#ff6266" d="M494-1120c-16-286 77-439 348-436h221v153H854c-136 2-174 46-176 184v99h385v143H678V0H494v-977H195v-143h299" id="i"/><path fill="#ff6266" d="M270-170h314v-1141l-338 76v-184l336-74h202v1323h310V0H270v-170" id="j"/><g id="b"><use transform="matrix(0.010850694444444444,0,0,0.010850694444444444,0,0)" xlink:href="#i"/><use transform="matrix(0.00759548611111111,0,0,0.00759548611111111,13.37890625,-5.909288194444444)" xlink:href="#j"/></g><path fill="#ff6266" d="M1067-1247l-358 194 358 195-57 98-336-203v377H559v-377L223-760l-57-98 358-195-358-194 57-99 336 203v-377h115v377l336-203" id="k"/><path fill="#ff6266" d="M356-643h521v164H356v-164" id="l"/><g id="c"><use transform="matrix(0.010850694444444444,0,0,0.010850694444444444,0,0)" xlink:href="#i"/><use transform="matrix(0.00759548611111111,0,0,0.00759548611111111,13.37890625,-5.909288194444444)" xlink:href="#k"/><use transform="matrix(0.00759548611111111,0,0,0.00759548611111111,22.744140625,-5.909288194444444)" xlink:href="#l"/><use transform="matrix(0.00759548611111111,0,0,0.00759548611111111,32.109375,-5.909288194444444)" xlink:href="#j"/></g><path fill="#ff6266" d="M614-616c-74 0-131-59-131-134 0-70 61-135 131-135 72 0 136 64 136 135 0 73-63 134-136 134zm2-744c-94 0-159 53-210 152-88 171-88 754 0 925 51 99 116 152 210 152 95 0 161-53 212-152 88-172 88-754 0-925-51-99-117-152-212-152zm0-160c159 0 280 65 362 196s122 324 122 579-40 447-122 578S775 29 616 29 336-36 255-167 133-490 133-745s41-448 122-579 202-196 361-196" id="m"/><g id="d"><use transform="matrix(0.010850694444444444,0,0,0.010850694444444444,0,0)" xlink:href="#i"/><use transform="matrix(0.00759548611111111,0,0,0.00759548611111111,13.37890625,-5.909288194444444)" xlink:href="#m"/></g><path fill="#fff" d="M930-1047c0-180-114-280-297-280H399v561h234c182 2 297-102 297-281zm211 0c0 308-189 448-508 447H399V0H197v-1493h436c317-2 508 140 508 446" id="n"/><path fill="#fff" d="M494-1120c-16-286 77-439 348-436h221v153H854c-136 2-174 46-176 184v99h385v143H678V0H494v-977H195v-143h299" id="o"/><path fill="#fff" d="M700-1171v444h445v170H700v444H532v-444H88v-170h444v-444h168" id="p"/><path fill="#fff" d="M270-170h314v-1141l-338 76v-184l336-74h202v1323h310V0H270v-170" id="q"/><g id="e"><use transform="matrix(0.008680555555555556,0,0,0.008680555555555556,0,0)" xlink:href="#n"/><use transform="matrix(0.006076388888888889,0,0,0.006076388888888889,10.703125,2.3637152777777777)" xlink:href="#o"/><use transform="matrix(0.006076388888888889,0,0,0.006076388888888889,18.1953125,2.3637152777777777)" xlink:href="#p"/><use transform="matrix(0.006076388888888889,0,0,0.006076388888888889,25.6875,2.3637152777777777)" xlink:href="#q"/></g><path fill="#fff" d="M356-643h521v164H356v-164" id="r"/><g id="f"><use transform="matrix(0.008680555555555556,0,0,0.008680555555555556,0,0)" xlink:href="#n"/><use transform="matrix(0.006076388888888889,0,0,0.006076388888888889,10.703125,2.3637152777777777)" xlink:href="#o"/><use transform="matrix(0.006076388888888889,0,0,0.006076388888888889,18.1953125,2.3637152777777777)" xlink:href="#r"/><use transform="matrix(0.006076388888888889,0,0,0.006076388888888889,25.6875,2.3637152777777777)" xlink:href="#q"/></g></defs></g></svg>