<?xml version="1.0" encoding="utf-8" standalone="no"?>
<!DOCTYPE svg PUBLIC "-//W3C//DTD SVG 1.1//EN"
  "http://www.w3.org/Graphics/SVG/1.1/DTD/svg11.dtd">
<svg xmlns:xlink="http://www.w3.org/1999/xlink" width="360pt" height="288pt" viewBox="0 0 360 288" xmlns="http://www.w3.org/2000/svg" version="1.1">
 <metadata>
  <rdf:RDF xmlns:dc="http://purl.org/dc/elements/1.1/" xmlns:cc="http://creativecommons.org/ns#" xmlns:rdf="http://www.w3.org/1999/02/22-rdf-syntax-ns#">
   <cc:Work>
    <dc:type rdf:resource="http://purl.org/dc/dcmitype/StillImage"/>
    <dc:date>2022-02-08T00:40:13.445982</dc:date>
    <dc:format>image/svg+xml</dc:format>
    <dc:creator>
     <cc:Agent>
      <dc:title>Matplotlib v3.5.1, https://matplotlib.org/</dc:title>
     </cc:Agent>
    </dc:creator>
   </cc:Work>
  </rdf:RDF>
 </metadata>
 <defs>
  <style type="text/css">*{stroke-linejoin: round; stroke-linecap: butt}</style>
 </defs>
 <g id="figure_1">
  <g id="patch_1">
   <path d="M 0 288 
L 360 288 
L 360 0 
L 0 0 
L 0 288 
z
" style="fill: none; opacity: 0"/>
  </g>
  <g id="axes_1">
   <g id="patch_2">
    <path d="M 50.925 121.35 
L 349.2 121.35 
L 349.2 10.8 
L 50.925 10.8 
L 50.925 121.35 
z
" style="fill: none"/>
   </g>
   <g id="matplotlib.axis_1">
    <g id="xtick_1">
     <g id="line2d_1">
      <defs>
       <path id="mbff88bcc60" d="M 0 0 
L 0 3.5 
" style="stroke: #ff6266; stroke-width: 0.8"/>
      </defs>
      <g>
       <use xlink:href="#mbff88bcc60" x="64.482955" y="121.35" style="fill: #ff6266; stroke: #ff6266; stroke-width: 0.8"/>
      </g>
     </g>
    </g>
    <g id="xtick_2">
     <g id="line2d_2">
      <g>
       <use xlink:href="#mbff88bcc60" x="119.262569" y="121.35" style="fill: #ff6266; stroke: #ff6266; stroke-width: 0.8"/>
      </g>
     </g>
    </g>
    <g id="xtick_3">
     <g id="line2d_3">
      <g>
       <use xlink:href="#mbff88bcc60" x="174.042183" y="121.35" style="fill: #ff6266; stroke: #ff6266; stroke-width: 0.8"/>
      </g>
     </g>
    </g>
    <g id="xtick_4">
     <g id="line2d_4">
      <g>
       <use xlink:href="#mbff88bcc60" x="228.821798" y="121.35" style="fill: #ff6266; stroke: #ff6266; stroke-width: 0.8"/>
      </g>
     </g>
    </g>
    <g id="xtick_5">
     <g id="line2d_5">
      <g>
       <use xlink:href="#mbff88bcc60" x="283.601412" y="121.35" style="fill: #ff6266; stroke: #ff6266; stroke-width: 0.8"/>
      </g>
     </g>
    </g>
    <g id="xtick_6">
     <g id="line2d_6">
      <g>
       <use xlink:href="#mbff88bcc60" x="338.381026" y="121.35" style="fill: #ff6266; stroke: #ff6266; stroke-width: 0.8"/>
      </g>
     </g>
    </g>
   </g>
   <g id="matplotlib.axis_2">
    <g id="ytick_1">
     <g id="line2d_7">
      <defs>
       <path id="m0f0ee5e7e7" d="M 0 0 
L -3.5 0 
" style="stroke: #ff6266; stroke-width: 0.8"/>
      </defs>
      <g>
       <use xlink:href="#m0f0ee5e7e7" x="50.925" y="97.224367" style="fill: #ff6266; stroke: #ff6266; stroke-width: 0.8"/>
      </g>
     </g>
     <g id="text_1">
      <!-- 450 -->
      <g style="fill: #ff6266" transform="translate(24.8375 101.023586)scale(0.1 -0.1)">
       <defs>
        <path id="DejaVuSans-34" d="M 2419 4116 
L 825 1625 
L 2419 1625 
L 2419 4116 
z
M 2253 4666 
L 3047 4666 
L 3047 1625 
L 3713 1625 
L 3713 1100 
L 3047 1100 
L 3047 0 
L 2419 0 
L 2419 1100 
L 313 1100 
L 313 1709 
L 2253 4666 
z
" transform="scale(0.015625)"/>
        <path id="DejaVuSans-35" d="M 691 4666 
L 3169 4666 
L 3169 4134 
L 1269 4134 
L 1269 2991 
Q 1406 3038 1543 3061 
Q 1681 3084 1819 3084 
Q 2600 3084 3056 2656 
Q 3513 2228 3513 1497 
Q 3513 744 3044 326 
Q 2575 -91 1722 -91 
Q 1428 -91 1123 -41 
Q 819 9 494 109 
L 494 744 
Q 775 591 1075 516 
Q 1375 441 1709 441 
Q 2250 441 2565 725 
Q 2881 1009 2881 1497 
Q 2881 1984 2565 2268 
Q 2250 2553 1709 2553 
Q 1456 2553 1204 2497 
Q 953 2441 691 2322 
L 691 4666 
z
" transform="scale(0.015625)"/>
        <path id="DejaVuSans-30" d="M 2034 4250 
Q 1547 4250 1301 3770 
Q 1056 3291 1056 2328 
Q 1056 1369 1301 889 
Q 1547 409 2034 409 
Q 2525 409 2770 889 
Q 3016 1369 3016 2328 
Q 3016 3291 2770 3770 
Q 2525 4250 2034 4250 
z
M 2034 4750 
Q 2819 4750 3233 4129 
Q 3647 3509 3647 2328 
Q 3647 1150 3233 529 
Q 2819 -91 2034 -91 
Q 1250 -91 836 529 
Q 422 1150 422 2328 
Q 422 3509 836 4129 
Q 1250 4750 2034 4750 
z
" transform="scale(0.015625)"/>
       </defs>
       <use xlink:href="#DejaVuSans-34"/>
       <use xlink:href="#DejaVuSans-35" x="63.623047"/>
       <use xlink:href="#DejaVuSans-30" x="127.246094"/>
      </g>
     </g>
    </g>
    <g id="ytick_2">
     <g id="line2d_8">
      <g>
       <use xlink:href="#m0f0ee5e7e7" x="50.925" y="63.307964" style="fill: #ff6266; stroke: #ff6266; stroke-width: 0.8"/>
      </g>
     </g>
     <g id="text_2">
      <!-- 500 -->
      <g style="fill: #ff6266" transform="translate(24.8375 67.107183)scale(0.1 -0.1)">
       <use xlink:href="#DejaVuSans-35"/>
       <use xlink:href="#DejaVuSans-30" x="63.623047"/>
       <use xlink:href="#DejaVuSans-30" x="127.246094"/>
      </g>
     </g>
    </g>
    <g id="ytick_3">
     <g id="line2d_9">
      <g>
       <use xlink:href="#m0f0ee5e7e7" x="50.925" y="29.391561" style="fill: #ff6266; stroke: #ff6266; stroke-width: 0.8"/>
      </g>
     </g>
     <g id="text_3">
      <!-- 550 -->
      <g style="fill: #ff6266" transform="translate(24.8375 33.19078)scale(0.1 -0.1)">
       <use xlink:href="#DejaVuSans-35"/>
       <use xlink:href="#DejaVuSans-35" x="63.623047"/>
       <use xlink:href="#DejaVuSans-30" x="127.246094"/>
      </g>
     </g>
    </g>
    <g id="text_4">
     <!-- Fitness -->
     <g style="fill: #ff6266" transform="translate(18.757812 87.146094)rotate(-90)scale(0.1 -0.1)">
      <defs>
       <path id="DejaVuSansMono-46" d="M 728 4666 
L 3475 4666 
L 3475 4134 
L 1363 4134 
L 1363 2759 
L 3278 2759 
L 3278 2228 
L 1363 2228 
L 1363 0 
L 728 0 
L 728 4666 
z
" transform="scale(0.015625)"/>
       <path id="DejaVuSansMono-69" d="M 800 3500 
L 2272 3500 
L 2272 447 
L 3413 447 
L 3413 0 
L 556 0 
L 556 447 
L 1697 447 
L 1697 3053 
L 800 3053 
L 800 3500 
z
M 1697 4863 
L 2272 4863 
L 2272 4134 
L 1697 4134 
L 1697 4863 
z
" transform="scale(0.015625)"/>
       <path id="DejaVuSansMono-74" d="M 1919 4494 
L 1919 3500 
L 3225 3500 
L 3225 3053 
L 1919 3053 
L 1919 1153 
Q 1919 766 2066 612 
Q 2213 459 2578 459 
L 3225 459 
L 3225 0 
L 2522 0 
Q 1875 0 1609 259 
Q 1344 519 1344 1153 
L 1344 3053 
L 409 3053 
L 409 3500 
L 1344 3500 
L 1344 4494 
L 1919 4494 
z
" transform="scale(0.015625)"/>
       <path id="DejaVuSansMono-6e" d="M 3284 2169 
L 3284 0 
L 2706 0 
L 2706 2169 
Q 2706 2641 2540 2862 
Q 2375 3084 2022 3084 
Q 1619 3084 1401 2798 
Q 1184 2513 1184 1978 
L 1184 0 
L 609 0 
L 609 3500 
L 1184 3500 
L 1184 2975 
Q 1338 3275 1600 3429 
Q 1863 3584 2222 3584 
Q 2756 3584 3020 3232 
Q 3284 2881 3284 2169 
z
" transform="scale(0.015625)"/>
       <path id="DejaVuSansMono-65" d="M 3475 1894 
L 3475 1613 
L 984 1613 
L 984 1594 
Q 984 1022 1282 709 
Q 1581 397 2125 397 
Q 2400 397 2700 484 
Q 3000 572 3341 750 
L 3341 178 
Q 3013 44 2708 -23 
Q 2403 -91 2119 -91 
Q 1303 -91 843 398 
Q 384 888 384 1747 
Q 384 2584 834 3084 
Q 1284 3584 2034 3584 
Q 2703 3584 3089 3131 
Q 3475 2678 3475 1894 
z
M 2900 2063 
Q 2888 2569 2661 2833 
Q 2434 3097 2009 3097 
Q 1594 3097 1325 2822 
Q 1056 2547 1006 2059 
L 2900 2063 
z
" transform="scale(0.015625)"/>
       <path id="DejaVuSansMono-73" d="M 3041 3378 
L 3041 2816 
Q 2794 2959 2544 3031 
Q 2294 3103 2034 3103 
Q 1644 3103 1451 2976 
Q 1259 2850 1259 2591 
Q 1259 2356 1403 2240 
Q 1547 2125 2119 2016 
L 2350 1972 
Q 2778 1891 2998 1647 
Q 3219 1403 3219 1013 
Q 3219 494 2850 201 
Q 2481 -91 1825 -91 
Q 1566 -91 1281 -36 
Q 997 19 666 128 
L 666 722 
Q 988 556 1281 473 
Q 1575 391 1838 391 
Q 2219 391 2428 545 
Q 2638 700 2638 978 
Q 2638 1378 1872 1531 
L 1847 1538 
L 1631 1581 
Q 1134 1678 906 1908 
Q 678 2138 678 2534 
Q 678 3038 1018 3311 
Q 1359 3584 1991 3584 
Q 2272 3584 2531 3532 
Q 2791 3481 3041 3378 
z
" transform="scale(0.015625)"/>
      </defs>
      <use xlink:href="#DejaVuSansMono-46"/>
      <use xlink:href="#DejaVuSansMono-69" x="60.205078"/>
      <use xlink:href="#DejaVuSansMono-74" x="120.410156"/>
      <use xlink:href="#DejaVuSansMono-6e" x="180.615234"/>
      <use xlink:href="#DejaVuSansMono-65" x="240.820312"/>
      <use xlink:href="#DejaVuSansMono-73" x="301.025391"/>
      <use xlink:href="#DejaVuSansMono-73" x="361.230469"/>
     </g>
    </g>
   </g>
   <g id="line2d_10">
    <path d="M 64.482955 116.325 
L 67.221935 87.765218 
L 69.960916 78.666939 
L 72.699897 70.122719 
L 75.438877 67.46096 
L 78.177858 63.220053 
L 80.916839 60.030826 
L 83.65582 57.480855 
L 86.3948 54.948792 
L 89.133781 54.312791 
L 91.872762 52.01136 
L 94.611742 50.839752 
L 97.350723 50.355697 
L 100.089704 49.893348 
L 102.828685 48.065661 
L 105.567665 47.756886 
L 108.306646 46.751333 
L 111.045627 47.573467 
L 113.784607 46.680244 
L 116.523588 45.911834 
L 119.262569 45.633448 
L 122.00155 44.891086 
L 124.74053 44.80426 
L 127.479511 44.867752 
L 130.218492 44.383697 
L 132.957472 44.020113 
L 135.696453 44.607816 
L 138.435434 43.87685 
L 141.174415 43.969645 
L 143.913395 43.727618 
L 146.652376 43.847003 
L 149.391357 44.195393 
L 152.130337 43.352095 
L 154.869318 42.785013 
L 157.608299 42.884863 
L 160.34728 43.765604 
L 163.08626 43.546368 
L 165.825241 43.147512 
L 168.564222 42.503914 
L 171.303202 42.341115 
L 174.042183 43.774829 
L 176.781164 42.794781 
L 179.520145 43.571331 
L 182.259125 43.32442 
L 184.998106 42.282508 
L 187.737087 42.735088 
L 190.476067 42.882692 
L 193.215048 42.383443 
L 195.954029 42.196224 
L 198.69301 41.969934 
L 201.43199 42.887034 
L 204.170971 42.3829 
L 206.909952 41.861402 
L 209.648933 42.195682 
L 212.387913 42.573375 
L 215.126894 42.09149 
L 217.865875 41.920009 
L 220.604855 42.373132 
L 223.343836 42.71501 
L 226.082817 42.719351 
L 228.821798 42.37259 
L 231.560778 42.192968 
L 234.299759 42.189712 
L 237.03874 42.090948 
L 239.77772 41.495647 
L 242.516701 41.317654 
L 245.255682 42.32375 
L 247.994663 42.627641 
L 250.733643 41.904815 
L 253.472624 41.761009 
L 256.211605 42.051876 
L 258.950585 41.929777 
L 261.689566 41.876596 
L 264.428547 41.291063 
L 267.167528 41.633483 
L 269.906508 42.022572 
L 272.645489 42.01389 
L 275.38447 41.965593 
L 278.12345 41.387115 
L 280.862431 41.986214 
L 283.601412 41.927606 
L 286.340393 41.936832 
L 289.079373 41.499446 
L 291.818354 42.116453 
L 294.557335 42.202194 
L 297.296315 41.691548 
L 300.035296 41.451149 
L 302.774277 41.187415 
L 305.513258 41.317654 
L 308.252238 41.368121 
L 310.991219 42.229869 
L 313.7302 41.149971 
L 316.46918 42.205992 
L 319.208161 41.636739 
L 321.947142 42.020944 
L 324.686123 41.999781 
L 327.425103 42.003579 
L 330.164084 41.424558 
L 332.903065 41.944972 
L 335.642045 42.404607 
" clip-path="url(#pe94ca11da4)" style="fill: none; stroke: #ff6266; stroke-width: 1.5; stroke-linecap: square"/>
   </g>
   <g id="line2d_11">
    <path d="M 64.482955 15.825 
L 67.221935 15.825 
L 69.960916 15.825 
L 72.699897 15.825 
L 75.438877 15.825 
L 78.177858 15.825 
L 80.916839 15.825 
L 83.65582 15.825 
L 86.3948 15.825 
L 89.133781 15.825 
L 91.872762 15.825 
L 94.611742 15.825 
L 97.350723 15.825 
L 100.089704 15.825 
L 102.828685 15.825 
L 105.567665 15.825 
L 108.306646 15.825 
L 111.045627 15.825 
L 113.784607 15.825 
L 116.523588 15.825 
L 119.262569 15.825 
L 122.00155 15.825 
L 124.74053 15.825 
L 127.479511 15.825 
L 130.218492 15.825 
L 132.957472 15.825 
L 135.696453 15.825 
L 138.435434 15.825 
L 141.174415 15.825 
L 143.913395 15.825 
L 146.652376 15.825 
L 149.391357 15.825 
L 152.130337 15.825 
L 154.869318 15.825 
L 157.608299 15.825 
L 160.34728 15.825 
L 163.08626 15.825 
L 165.825241 15.825 
L 168.564222 15.825 
L 171.303202 15.825 
L 174.042183 15.825 
L 176.781164 15.825 
L 179.520145 15.825 
L 182.259125 15.825 
L 184.998106 15.825 
L 187.737087 15.825 
L 190.476067 15.825 
L 193.215048 15.825 
L 195.954029 15.825 
L 198.69301 15.825 
L 201.43199 15.825 
L 204.170971 15.825 
L 206.909952 15.825 
L 209.648933 15.825 
L 212.387913 15.825 
L 215.126894 15.825 
L 217.865875 15.825 
L 220.604855 15.825 
L 223.343836 15.825 
L 226.082817 15.825 
L 228.821798 15.825 
L 231.560778 15.825 
L 234.299759 15.825 
L 237.03874 15.825 
L 239.77772 15.825 
L 242.516701 15.825 
L 245.255682 15.825 
L 247.994663 15.825 
L 250.733643 15.825 
L 253.472624 15.825 
L 256.211605 15.825 
L 258.950585 15.825 
L 261.689566 15.825 
L 264.428547 15.825 
L 267.167528 15.825 
L 269.906508 15.825 
L 272.645489 15.825 
L 275.38447 15.825 
L 278.12345 15.825 
L 280.862431 15.825 
L 283.601412 15.825 
L 286.340393 15.825 
L 289.079373 15.825 
L 291.818354 15.825 
L 294.557335 15.825 
L 297.296315 15.825 
L 300.035296 15.825 
L 302.774277 15.825 
L 305.513258 15.825 
L 308.252238 15.825 
L 310.991219 15.825 
L 313.7302 15.825 
L 316.46918 15.825 
L 319.208161 15.825 
L 321.947142 15.825 
L 324.686123 15.825 
L 327.425103 15.825 
L 330.164084 15.825 
L 332.903065 15.825 
L 335.642045 15.825 
" clip-path="url(#pe94ca11da4)" style="fill: none; stroke-dasharray: 1.5,2.475; stroke-dashoffset: 0; stroke: #ff6266; stroke-opacity: 0.6; stroke-width: 1.5"/>
   </g>
   <g id="patch_3">
    <path d="M 50.925 121.35 
L 50.925 10.8 
" style="fill: none"/>
   </g>
   <g id="patch_4">
    <path d="M 349.2 121.35 
L 349.2 10.8 
" style="fill: none"/>
   </g>
   <g id="patch_5">
    <path d="M 50.925 121.35 
L 349.2 121.35 
" style="fill: none"/>
   </g>
   <g id="patch_6">
    <path d="M 50.925 10.8 
L 349.2 10.8 
" style="fill: none"/>
   </g>
   <g id="legend_1">
    <g id="line2d_12">
     <path d="M 270.057812 92.039063 
L 280.057812 92.039063 
L 290.057812 92.039063 
" style="fill: none; stroke: #ff6266; stroke-width: 1.5; stroke-linecap: square"/>
    </g>
    <g id="text_5">
     <!-- Mean -->
     <g style="fill: #ff6266" transform="translate(298.057812 95.539063)scale(0.1 -0.1)">
      <defs>
       <path id="DejaVuSansMono-4d" d="M 269 4666 
L 1113 4666 
L 1919 2291 
L 2731 4666 
L 3578 4666 
L 3578 0 
L 2994 0 
L 2994 4122 
L 2163 1663 
L 1684 1663 
L 850 4122 
L 850 0 
L 269 0 
L 269 4666 
z
" transform="scale(0.015625)"/>
       <path id="DejaVuSansMono-61" d="M 2194 1759 
L 2003 1759 
Q 1500 1759 1245 1582 
Q 991 1406 991 1056 
Q 991 741 1181 566 
Q 1372 391 1709 391 
Q 2184 391 2456 720 
Q 2728 1050 2731 1631 
L 2731 1759 
L 2194 1759 
z
M 3309 1997 
L 3309 0 
L 2731 0 
L 2731 519 
Q 2547 206 2267 57 
Q 1988 -91 1588 -91 
Q 1053 -91 734 211 
Q 416 513 416 1019 
Q 416 1603 808 1906 
Q 1200 2209 1959 2209 
L 2731 2209 
L 2731 2300 
Q 2728 2719 2518 2908 
Q 2309 3097 1850 3097 
Q 1556 3097 1256 3012 
Q 956 2928 672 2766 
L 672 3341 
Q 991 3463 1283 3523 
Q 1575 3584 1850 3584 
Q 2284 3584 2592 3456 
Q 2900 3328 3091 3072 
Q 3209 2916 3259 2686 
Q 3309 2456 3309 1997 
z
" transform="scale(0.015625)"/>
      </defs>
      <use xlink:href="#DejaVuSansMono-4d"/>
      <use xlink:href="#DejaVuSansMono-65" x="60.205078"/>
      <use xlink:href="#DejaVuSansMono-61" x="120.410156"/>
      <use xlink:href="#DejaVuSansMono-6e" x="180.615234"/>
     </g>
    </g>
    <g id="line2d_13">
     <path d="M 270.057812 106.770313 
L 280.057812 106.770313 
L 290.057812 106.770313 
" style="fill: none; stroke-dasharray: 1.5,2.475; stroke-dashoffset: 0; stroke: #ff6266; stroke-opacity: 0.6; stroke-width: 1.5"/>
    </g>
    <g id="text_6">
     <!-- Optimal -->
     <g style="fill: #ff6266" transform="translate(298.057812 110.270313)scale(0.1 -0.1)">
      <defs>
       <path id="DejaVuSansMono-4f" d="M 2828 2328 
Q 2828 3356 2617 3797 
Q 2406 4238 1925 4238 
Q 1447 4238 1236 3797 
Q 1025 3356 1025 2328 
Q 1025 1303 1236 862 
Q 1447 422 1925 422 
Q 2406 422 2617 861 
Q 2828 1300 2828 2328 
z
M 3488 2328 
Q 3488 1109 3102 509 
Q 2716 -91 1925 -91 
Q 1134 -91 750 506 
Q 366 1103 366 2328 
Q 366 3550 752 4150 
Q 1138 4750 1925 4750 
Q 2716 4750 3102 4150 
Q 3488 3550 3488 2328 
z
" transform="scale(0.015625)"/>
       <path id="DejaVuSansMono-70" d="M 1172 441 
L 1172 -1331 
L 594 -1331 
L 594 3500 
L 1172 3500 
L 1172 3053 
Q 1316 3313 1555 3448 
Q 1794 3584 2106 3584 
Q 2741 3584 3102 3093 
Q 3463 2603 3463 1734 
Q 3463 881 3100 395 
Q 2738 -91 2106 -91 
Q 1788 -91 1548 45 
Q 1309 181 1172 441 
z
M 2859 1747 
Q 2859 2416 2648 2756 
Q 2438 3097 2022 3097 
Q 1603 3097 1387 2755 
Q 1172 2413 1172 1747 
Q 1172 1084 1387 740 
Q 1603 397 2022 397 
Q 2438 397 2648 737 
Q 2859 1078 2859 1747 
z
" transform="scale(0.015625)"/>
       <path id="DejaVuSansMono-6d" d="M 2113 3144 
Q 2219 3369 2383 3476 
Q 2547 3584 2778 3584 
Q 3200 3584 3373 3257 
Q 3547 2931 3547 2028 
L 3547 0 
L 3022 0 
L 3022 2003 
Q 3022 2744 2939 2923 
Q 2856 3103 2638 3103 
Q 2388 3103 2295 2911 
Q 2203 2719 2203 2003 
L 2203 0 
L 1678 0 
L 1678 2003 
Q 1678 2753 1589 2928 
Q 1500 3103 1269 3103 
Q 1041 3103 952 2911 
Q 863 2719 863 2003 
L 863 0 
L 341 0 
L 341 3500 
L 863 3500 
L 863 3200 
Q 966 3388 1120 3486 
Q 1275 3584 1472 3584 
Q 1709 3584 1867 3475 
Q 2025 3366 2113 3144 
z
" transform="scale(0.015625)"/>
       <path id="DejaVuSansMono-6c" d="M 1997 1269 
Q 1997 881 2139 684 
Q 2281 488 2559 488 
L 3231 488 
L 3231 0 
L 2503 0 
Q 1988 0 1705 331 
Q 1422 663 1422 1269 
L 1422 4447 
L 500 4447 
L 500 4897 
L 1997 4897 
L 1997 1269 
z
" transform="scale(0.015625)"/>
      </defs>
      <use xlink:href="#DejaVuSansMono-4f"/>
      <use xlink:href="#DejaVuSansMono-70" x="60.205078"/>
      <use xlink:href="#DejaVuSansMono-74" x="120.410156"/>
      <use xlink:href="#DejaVuSansMono-69" x="180.615234"/>
      <use xlink:href="#DejaVuSansMono-6d" x="240.820312"/>
      <use xlink:href="#DejaVuSansMono-61" x="301.025391"/>
      <use xlink:href="#DejaVuSansMono-6c" x="361.230469"/>
     </g>
    </g>
   </g>
  </g>
  <g id="axes_2">
   <g id="patch_7">
    <path d="M 50.925 246.2 
L 349.2 246.2 
L 349.2 135.65 
L 50.925 135.65 
L 50.925 246.2 
z
" style="fill: none"/>
   </g>
   <g id="matplotlib.axis_3">
    <g id="xtick_7">
     <g id="line2d_14">
      <g>
       <use xlink:href="#mbff88bcc60" x="64.482955" y="246.2" style="fill: #ff6266; stroke: #ff6266; stroke-width: 0.8"/>
      </g>
     </g>
     <g id="text_7">
      <!-- 0 -->
      <g style="fill: #ff6266" transform="translate(61.301705 260.798438)scale(0.1 -0.1)">
       <use xlink:href="#DejaVuSans-30"/>
      </g>
     </g>
    </g>
    <g id="xtick_8">
     <g id="line2d_15">
      <g>
       <use xlink:href="#mbff88bcc60" x="119.262569" y="246.2" style="fill: #ff6266; stroke: #ff6266; stroke-width: 0.8"/>
      </g>
     </g>
     <g id="text_8">
      <!-- 20 -->
      <g style="fill: #ff6266" transform="translate(112.900069 260.798438)scale(0.1 -0.1)">
       <defs>
        <path id="DejaVuSans-32" d="M 1228 531 
L 3431 531 
L 3431 0 
L 469 0 
L 469 531 
Q 828 903 1448 1529 
Q 2069 2156 2228 2338 
Q 2531 2678 2651 2914 
Q 2772 3150 2772 3378 
Q 2772 3750 2511 3984 
Q 2250 4219 1831 4219 
Q 1534 4219 1204 4116 
Q 875 4013 500 3803 
L 500 4441 
Q 881 4594 1212 4672 
Q 1544 4750 1819 4750 
Q 2544 4750 2975 4387 
Q 3406 4025 3406 3419 
Q 3406 3131 3298 2873 
Q 3191 2616 2906 2266 
Q 2828 2175 2409 1742 
Q 1991 1309 1228 531 
z
" transform="scale(0.015625)"/>
       </defs>
       <use xlink:href="#DejaVuSans-32"/>
       <use xlink:href="#DejaVuSans-30" x="63.623047"/>
      </g>
     </g>
    </g>
    <g id="xtick_9">
     <g id="line2d_16">
      <g>
       <use xlink:href="#mbff88bcc60" x="174.042183" y="246.2" style="fill: #ff6266; stroke: #ff6266; stroke-width: 0.8"/>
      </g>
     </g>
     <g id="text_9">
      <!-- 40 -->
      <g style="fill: #ff6266" transform="translate(167.679683 260.798438)scale(0.1 -0.1)">
       <use xlink:href="#DejaVuSans-34"/>
       <use xlink:href="#DejaVuSans-30" x="63.623047"/>
      </g>
     </g>
    </g>
    <g id="xtick_10">
     <g id="line2d_17">
      <g>
       <use xlink:href="#mbff88bcc60" x="228.821798" y="246.2" style="fill: #ff6266; stroke: #ff6266; stroke-width: 0.8"/>
      </g>
     </g>
     <g id="text_10">
      <!-- 60 -->
      <g style="fill: #ff6266" transform="translate(222.459298 260.798438)scale(0.1 -0.1)">
       <defs>
        <path id="DejaVuSans-36" d="M 2113 2584 
Q 1688 2584 1439 2293 
Q 1191 2003 1191 1497 
Q 1191 994 1439 701 
Q 1688 409 2113 409 
Q 2538 409 2786 701 
Q 3034 994 3034 1497 
Q 3034 2003 2786 2293 
Q 2538 2584 2113 2584 
z
M 3366 4563 
L 3366 3988 
Q 3128 4100 2886 4159 
Q 2644 4219 2406 4219 
Q 1781 4219 1451 3797 
Q 1122 3375 1075 2522 
Q 1259 2794 1537 2939 
Q 1816 3084 2150 3084 
Q 2853 3084 3261 2657 
Q 3669 2231 3669 1497 
Q 3669 778 3244 343 
Q 2819 -91 2113 -91 
Q 1303 -91 875 529 
Q 447 1150 447 2328 
Q 447 3434 972 4092 
Q 1497 4750 2381 4750 
Q 2619 4750 2861 4703 
Q 3103 4656 3366 4563 
z
" transform="scale(0.015625)"/>
       </defs>
       <use xlink:href="#DejaVuSans-36"/>
       <use xlink:href="#DejaVuSans-30" x="63.623047"/>
      </g>
     </g>
    </g>
    <g id="xtick_11">
     <g id="line2d_18">
      <g>
       <use xlink:href="#mbff88bcc60" x="283.601412" y="246.2" style="fill: #ff6266; stroke: #ff6266; stroke-width: 0.8"/>
      </g>
     </g>
     <g id="text_11">
      <!-- 80 -->
      <g style="fill: #ff6266" transform="translate(277.238912 260.798438)scale(0.1 -0.1)">
       <defs>
        <path id="DejaVuSans-38" d="M 2034 2216 
Q 1584 2216 1326 1975 
Q 1069 1734 1069 1313 
Q 1069 891 1326 650 
Q 1584 409 2034 409 
Q 2484 409 2743 651 
Q 3003 894 3003 1313 
Q 3003 1734 2745 1975 
Q 2488 2216 2034 2216 
z
M 1403 2484 
Q 997 2584 770 2862 
Q 544 3141 544 3541 
Q 544 4100 942 4425 
Q 1341 4750 2034 4750 
Q 2731 4750 3128 4425 
Q 3525 4100 3525 3541 
Q 3525 3141 3298 2862 
Q 3072 2584 2669 2484 
Q 3125 2378 3379 2068 
Q 3634 1759 3634 1313 
Q 3634 634 3220 271 
Q 2806 -91 2034 -91 
Q 1263 -91 848 271 
Q 434 634 434 1313 
Q 434 1759 690 2068 
Q 947 2378 1403 2484 
z
M 1172 3481 
Q 1172 3119 1398 2916 
Q 1625 2713 2034 2713 
Q 2441 2713 2670 2916 
Q 2900 3119 2900 3481 
Q 2900 3844 2670 4047 
Q 2441 4250 2034 4250 
Q 1625 4250 1398 4047 
Q 1172 3844 1172 3481 
z
" transform="scale(0.015625)"/>
       </defs>
       <use xlink:href="#DejaVuSans-38"/>
       <use xlink:href="#DejaVuSans-30" x="63.623047"/>
      </g>
     </g>
    </g>
    <g id="xtick_12">
     <g id="line2d_19">
      <g>
       <use xlink:href="#mbff88bcc60" x="338.381026" y="246.2" style="fill: #ff6266; stroke: #ff6266; stroke-width: 0.8"/>
      </g>
     </g>
     <g id="text_12">
      <!-- 100 -->
      <g style="fill: #ff6266" transform="translate(328.837276 260.798438)scale(0.1 -0.1)">
       <defs>
        <path id="DejaVuSans-31" d="M 794 531 
L 1825 531 
L 1825 4091 
L 703 3866 
L 703 4441 
L 1819 4666 
L 2450 4666 
L 2450 531 
L 3481 531 
L 3481 0 
L 794 0 
L 794 531 
z
" transform="scale(0.015625)"/>
       </defs>
       <use xlink:href="#DejaVuSans-31"/>
       <use xlink:href="#DejaVuSans-30" x="63.623047"/>
       <use xlink:href="#DejaVuSans-30" x="127.246094"/>
      </g>
     </g>
    </g>
    <g id="text_13">
     <!-- Iteration -->
     <g style="fill: #ff6266" transform="translate(172.971094 274.529688)scale(0.1 -0.1)">
      <defs>
       <path id="DejaVuSansMono-49" d="M 628 4666 
L 3219 4666 
L 3219 4134 
L 2241 4134 
L 2241 531 
L 3219 531 
L 3219 0 
L 628 0 
L 628 531 
L 1606 531 
L 1606 4134 
L 628 4134 
L 628 4666 
z
" transform="scale(0.015625)"/>
       <path id="DejaVuSansMono-72" d="M 3609 2778 
Q 3425 2922 3234 2987 
Q 3044 3053 2816 3053 
Q 2278 3053 1993 2715 
Q 1709 2378 1709 1741 
L 1709 0 
L 1131 0 
L 1131 3500 
L 1709 3500 
L 1709 2816 
Q 1853 3188 2151 3386 
Q 2450 3584 2859 3584 
Q 3072 3584 3256 3531 
Q 3441 3478 3609 3366 
L 3609 2778 
z
" transform="scale(0.015625)"/>
       <path id="DejaVuSansMono-6f" d="M 1925 3097 
Q 1488 3097 1263 2756 
Q 1038 2416 1038 1747 
Q 1038 1081 1263 739 
Q 1488 397 1925 397 
Q 2366 397 2591 739 
Q 2816 1081 2816 1747 
Q 2816 2416 2591 2756 
Q 2366 3097 1925 3097 
z
M 1925 3584 
Q 2653 3584 3039 3112 
Q 3425 2641 3425 1747 
Q 3425 850 3040 379 
Q 2656 -91 1925 -91 
Q 1197 -91 812 379 
Q 428 850 428 1747 
Q 428 2641 812 3112 
Q 1197 3584 1925 3584 
z
" transform="scale(0.015625)"/>
      </defs>
      <use xlink:href="#DejaVuSansMono-49"/>
      <use xlink:href="#DejaVuSansMono-74" x="60.205078"/>
      <use xlink:href="#DejaVuSansMono-65" x="120.410156"/>
      <use xlink:href="#DejaVuSansMono-72" x="180.615234"/>
      <use xlink:href="#DejaVuSansMono-61" x="240.820312"/>
      <use xlink:href="#DejaVuSansMono-74" x="301.025391"/>
      <use xlink:href="#DejaVuSansMono-69" x="361.230469"/>
      <use xlink:href="#DejaVuSansMono-6f" x="421.435547"/>
      <use xlink:href="#DejaVuSansMono-6e" x="481.640625"/>
     </g>
    </g>
   </g>
   <g id="matplotlib.axis_4">
    <g id="ytick_4">
     <g id="line2d_20">
      <g>
       <use xlink:href="#m0f0ee5e7e7" x="50.925" y="233.347495" style="fill: #ff6266; stroke: #ff6266; stroke-width: 0.8"/>
      </g>
     </g>
     <g id="text_14">
      <!-- 25 -->
      <g style="fill: #ff6266" transform="translate(31.2 237.146714)scale(0.1 -0.1)">
       <use xlink:href="#DejaVuSans-32"/>
       <use xlink:href="#DejaVuSans-35" x="63.623047"/>
      </g>
     </g>
    </g>
    <g id="ytick_5">
     <g id="line2d_21">
      <g>
       <use xlink:href="#m0f0ee5e7e7" x="50.925" y="209.005829" style="fill: #ff6266; stroke: #ff6266; stroke-width: 0.8"/>
      </g>
     </g>
     <g id="text_15">
      <!-- 50 -->
      <g style="fill: #ff6266" transform="translate(31.2 212.805048)scale(0.1 -0.1)">
       <use xlink:href="#DejaVuSans-35"/>
       <use xlink:href="#DejaVuSans-30" x="63.623047"/>
      </g>
     </g>
    </g>
    <g id="ytick_6">
     <g id="line2d_22">
      <g>
       <use xlink:href="#m0f0ee5e7e7" x="50.925" y="184.664163" style="fill: #ff6266; stroke: #ff6266; stroke-width: 0.8"/>
      </g>
     </g>
     <g id="text_16">
      <!-- 75 -->
      <g style="fill: #ff6266" transform="translate(31.2 188.463382)scale(0.1 -0.1)">
       <defs>
        <path id="DejaVuSans-37" d="M 525 4666 
L 3525 4666 
L 3525 4397 
L 1831 0 
L 1172 0 
L 2766 4134 
L 525 4134 
L 525 4666 
z
" transform="scale(0.015625)"/>
       </defs>
       <use xlink:href="#DejaVuSans-37"/>
       <use xlink:href="#DejaVuSans-35" x="63.623047"/>
      </g>
     </g>
    </g>
    <g id="ytick_7">
     <g id="line2d_23">
      <g>
       <use xlink:href="#m0f0ee5e7e7" x="50.925" y="160.322497" style="fill: #ff6266; stroke: #ff6266; stroke-width: 0.8"/>
      </g>
     </g>
     <g id="text_17">
      <!-- 100 -->
      <g style="fill: #ff6266" transform="translate(24.8375 164.121716)scale(0.1 -0.1)">
       <use xlink:href="#DejaVuSans-31"/>
       <use xlink:href="#DejaVuSans-30" x="63.623047"/>
       <use xlink:href="#DejaVuSans-30" x="127.246094"/>
      </g>
     </g>
    </g>
    <g id="ytick_8">
     <g id="line2d_24">
      <g>
       <use xlink:href="#m0f0ee5e7e7" x="50.925" y="135.980831" style="fill: #ff6266; stroke: #ff6266; stroke-width: 0.8"/>
      </g>
     </g>
     <g id="text_18">
      <!-- 125 -->
      <g style="fill: #ff6266" transform="translate(24.8375 139.780049)scale(0.1 -0.1)">
       <use xlink:href="#DejaVuSans-31"/>
       <use xlink:href="#DejaVuSans-32" x="63.623047"/>
       <use xlink:href="#DejaVuSans-35" x="127.246094"/>
      </g>
     </g>
    </g>
    <g id="text_19">
     <!-- Fitness -->
     <g style="fill: #ff6266" transform="translate(18.757812 211.996094)rotate(-90)scale(0.1 -0.1)">
      <use xlink:href="#DejaVuSansMono-46"/>
      <use xlink:href="#DejaVuSansMono-69" x="60.205078"/>
      <use xlink:href="#DejaVuSansMono-74" x="120.410156"/>
      <use xlink:href="#DejaVuSansMono-6e" x="180.615234"/>
      <use xlink:href="#DejaVuSansMono-65" x="240.820312"/>
      <use xlink:href="#DejaVuSansMono-73" x="301.025391"/>
      <use xlink:href="#DejaVuSansMono-73" x="361.230469"/>
     </g>
    </g>
   </g>
   <g id="line2d_25">
    <path d="M 64.482955 226.364454 
L 67.221935 151.691829 
L 69.960916 169.902572 
L 72.699897 163.790659 
L 75.438877 140.675 
L 78.177858 162.748559 
L 80.916839 175.592719 
L 83.65582 183.013039 
L 86.3948 178.305896 
L 89.133781 191.448657 
L 91.872762 211.614563 
L 94.611742 201.844364 
L 97.350723 209.113524 
L 100.089704 180.941547 
L 102.828685 211.231425 
L 105.567665 221.327276 
L 108.306646 213.729842 
L 111.045627 205.371342 
L 113.784607 214.115745 
L 116.523588 211.479316 
L 119.262569 212.698908 
L 122.00155 219.832157 
L 124.74053 220.425617 
L 127.479511 227.586854 
L 130.218492 226.471277 
L 132.957472 211.198526 
L 135.696453 214.674844 
L 138.435434 222.492934 
L 141.174415 215.947493 
L 143.913395 218.931636 
L 146.652376 231.852407 
L 149.391357 219.343583 
L 152.130337 218.221717 
L 154.869318 228.016576 
L 157.608299 233.568977 
L 160.34728 222.035168 
L 163.08626 217.884208 
L 165.825241 228.63389 
L 168.564222 226.462703 
L 171.303202 229.295527 
L 174.042183 232.675883 
L 176.781164 227.399935 
L 179.520145 225.881451 
L 182.259125 226.637592 
L 184.998106 230.547962 
L 187.737087 229.892596 
L 190.476067 225.759389 
L 193.215048 236.294406 
L 195.954029 234.875274 
L 198.69301 229.768665 
L 201.43199 225.156831 
L 204.170971 231.868208 
L 206.909952 233.206316 
L 209.648933 230.303066 
L 212.387913 230.256988 
L 215.126894 230.490124 
L 217.865875 226.877843 
L 220.604855 234.891269 
L 223.343836 229.946488 
L 226.082817 227.404359 
L 228.821798 231.025801 
L 231.560778 231.421848 
L 234.299759 233.158405 
L 237.03874 237.873724 
L 239.77772 230.729423 
L 242.516701 231.783228 
L 245.255682 228.465117 
L 247.994663 236.063219 
L 250.733643 236.190216 
L 253.472624 231.685648 
L 256.211605 236.267311 
L 258.950585 235.342079 
L 261.689566 219.858395 
L 264.428547 230.430474 
L 267.167528 227.743214 
L 269.906508 236.804636 
L 272.645489 233.823392 
L 275.38447 235.868523 
L 278.12345 230.510573 
L 280.862431 233.943274 
L 283.601412 230.516042 
L 286.340393 235.972703 
L 289.079373 228.957081 
L 291.818354 233.509888 
L 294.557335 231.521831 
L 297.296315 235.776556 
L 300.035296 233.762965 
L 302.774277 232.840609 
L 305.513258 227.267908 
L 308.252238 231.630352 
L 310.991219 236.060716 
L 313.7302 230.291537 
L 316.46918 231.455183 
L 319.208161 235.861285 
L 321.947142 232.146398 
L 324.686123 241.175 
L 327.425103 229.619259 
L 330.164084 232.60793 
L 332.903065 229.363276 
L 335.642045 230.236186 
" clip-path="url(#pae84f68843)" style="fill: none; stroke-dasharray: 5.55,2.4; stroke-dashoffset: 0; stroke: #ff6266; stroke-opacity: 0.6; stroke-width: 1.5"/>
   </g>
   <g id="patch_8">
    <path d="M 50.925 246.2 
L 50.925 135.65 
" style="fill: none"/>
   </g>
   <g id="patch_9">
    <path d="M 349.2 246.2 
L 349.2 135.65 
" style="fill: none"/>
   </g>
   <g id="patch_10">
    <path d="M 50.925 246.2 
L 349.2 246.2 
" style="fill: none"/>
   </g>
   <g id="patch_11">
    <path d="M 50.925 135.65 
L 349.2 135.65 
" style="fill: none"/>
   </g>
   <g id="legend_2">
    <g id="line2d_26">
     <path d="M 264.0375 148.801563 
L 274.0375 148.801563 
L 284.0375 148.801563 
" style="fill: none; stroke-dasharray: 5.55,2.4; stroke-dashoffset: 0; stroke: #ff6266; stroke-opacity: 0.6; stroke-width: 1.5"/>
    </g>
    <g id="text_20">
     <!-- Variance -->
     <g style="fill: #ff6266" transform="translate(292.0375 152.301563)scale(0.1 -0.1)">
      <defs>
       <path id="DejaVuSansMono-56" d="M 1925 531 
L 3022 4666 
L 3675 4666 
L 2309 0 
L 1544 0 
L 178 4666 
L 831 4666 
L 1925 531 
z
" transform="scale(0.015625)"/>
       <path id="DejaVuSansMono-63" d="M 3316 178 
Q 3084 44 2839 -23 
Q 2594 -91 2338 -91 
Q 1525 -91 1067 396 
Q 609 884 609 1747 
Q 609 2609 1067 3096 
Q 1525 3584 2338 3584 
Q 2591 3584 2831 3518 
Q 3072 3453 3316 3316 
L 3316 2713 
Q 3088 2916 2858 3006 
Q 2628 3097 2338 3097 
Q 1797 3097 1506 2747 
Q 1216 2397 1216 1747 
Q 1216 1100 1508 748 
Q 1800 397 2338 397 
Q 2638 397 2875 489 
Q 3113 581 3316 775 
L 3316 178 
z
" transform="scale(0.015625)"/>
      </defs>
      <use xlink:href="#DejaVuSansMono-56"/>
      <use xlink:href="#DejaVuSansMono-61" x="60.205078"/>
      <use xlink:href="#DejaVuSansMono-72" x="120.410156"/>
      <use xlink:href="#DejaVuSansMono-69" x="180.615234"/>
      <use xlink:href="#DejaVuSansMono-61" x="240.820312"/>
      <use xlink:href="#DejaVuSansMono-6e" x="301.025391"/>
      <use xlink:href="#DejaVuSansMono-63" x="361.230469"/>
      <use xlink:href="#DejaVuSansMono-65" x="421.435547"/>
     </g>
    </g>
   </g>
  </g>
 </g>
 <defs>
  <clipPath id="pe94ca11da4">
   <rect x="50.925" y="10.8" width="298.275" height="110.55"/>
  </clipPath>
  <clipPath id="pae84f68843">
   <rect x="50.925" y="135.65" width="298.275" height="110.55"/>
  </clipPath>
 </defs>
</svg>
