<?xml version="1.0" encoding="utf-8" standalone="no"?>
<!DOCTYPE svg PUBLIC "-//W3C//DTD SVG 1.1//EN"
  "http://www.w3.org/Graphics/SVG/1.1/DTD/svg11.dtd">
<svg xmlns:xlink="http://www.w3.org/1999/xlink" width="432pt" height="216pt" viewBox="0 0 432 216" xmlns="http://www.w3.org/2000/svg" version="1.1">
 <metadata>
  <rdf:RDF xmlns:dc="http://purl.org/dc/elements/1.1/" xmlns:cc="http://creativecommons.org/ns#" xmlns:rdf="http://www.w3.org/1999/02/22-rdf-syntax-ns#">
   <cc:Work>
    <dc:type rdf:resource="http://purl.org/dc/dcmitype/StillImage"/>
    <dc:date>2022-02-08T00:38:55.614827</dc:date>
    <dc:format>image/svg+xml</dc:format>
    <dc:creator>
     <cc:Agent>
      <dc:title>Matplotlib v3.5.1, https://matplotlib.org/</dc:title>
     </cc:Agent>
    </dc:creator>
   </cc:Work>
  </rdf:RDF>
 </metadata>
 <defs>
  <style type="text/css">*{stroke-linejoin: round; stroke-linecap: butt}</style>
 </defs>
 <g id="figure_1">
  <g id="patch_1">
   <path d="M 0 216 
L 432 216 
L 432 0 
L 0 0 
L 0 216 
z
" style="fill: none; opacity: 0"/>
  </g>
  <g id="axes_1">
   <g id="patch_2">
    <path d="M 54.175 174.2 
L 230.5375 174.2 
L 230.5375 10.8 
L 54.175 10.8 
L 54.175 174.2 
z
" style="fill: none"/>
   </g>
   <g id="patch_3">
    <path d="M 62.191477 174.2 
L 67.535795 174.2 
L 67.535795 174.199625 
L 62.191477 174.199625 
z
" clip-path="url(#pafb4936978)" style="fill: #ff6266"/>
   </g>
   <g id="patch_4">
    <path d="M 67.535795 174.2 
L 72.880114 174.2 
L 72.880114 174.195214 
L 67.535795 174.195214 
z
" clip-path="url(#pafb4936978)" style="fill: #ff6266"/>
   </g>
   <g id="patch_5">
    <path d="M 72.880114 174.2 
L 78.224432 174.2 
L 78.224432 174.166583 
L 72.880114 174.166583 
z
" clip-path="url(#pafb4936978)" style="fill: #ff6266"/>
   </g>
   <g id="patch_6">
    <path d="M 78.224432 174.2 
L 83.56875 174.2 
L 83.56875 174.036075 
L 78.224432 174.036075 
z
" clip-path="url(#pafb4936978)" style="fill: #ff6266"/>
   </g>
   <g id="patch_7">
    <path d="M 83.56875 174.2 
L 88.913068 174.2 
L 88.913068 173.596336 
L 83.56875 173.596336 
z
" clip-path="url(#pafb4936978)" style="fill: #ff6266"/>
   </g>
   <g id="patch_8">
    <path d="M 88.913068 174.2 
L 94.257386 174.2 
L 94.257386 172.484185 
L 88.913068 172.484185 
z
" clip-path="url(#pafb4936978)" style="fill: #ff6266"/>
   </g>
   <g id="patch_9">
    <path d="M 94.257386 174.2 
L 99.601705 174.2 
L 99.601705 170.171771 
L 94.257386 170.171771 
z
" clip-path="url(#pafb4936978)" style="fill: #ff6266"/>
   </g>
   <g id="patch_10">
    <path d="M 99.601705 174.2 
L 104.946023 174.2 
L 104.946023 166.125564 
L 99.601705 166.125564 
z
" clip-path="url(#pafb4936978)" style="fill: #ff6266"/>
   </g>
   <g id="patch_11">
    <path d="M 104.946023 174.2 
L 110.290341 174.2 
L 110.290341 160.072787 
L 104.946023 160.072787 
z
" clip-path="url(#pafb4936978)" style="fill: #ff6266"/>
   </g>
   <g id="patch_12">
    <path d="M 110.290341 174.2 
L 115.634659 174.2 
L 115.634659 152.425417 
L 110.290341 152.425417 
z
" clip-path="url(#pafb4936978)" style="fill: #ff6266"/>
   </g>
   <g id="patch_13">
    <path d="M 115.634659 174.2 
L 120.978977 174.2 
L 120.978977 144.333077 
L 115.634659 144.333077 
z
" clip-path="url(#pafb4936978)" style="fill: #ff6266"/>
   </g>
   <g id="patch_14">
    <path d="M 120.978977 174.2 
L 126.323295 174.2 
L 126.323295 137.355294 
L 120.978977 137.355294 
z
" clip-path="url(#pafb4936978)" style="fill: #ff6266"/>
   </g>
   <g id="patch_15">
    <path d="M 126.323295 174.2 
L 131.667614 174.2 
L 131.667614 132.923403 
L 126.323295 132.923403 
z
" clip-path="url(#pafb4936978)" style="fill: #ff6266"/>
   </g>
   <g id="patch_16">
    <path d="M 131.667614 174.2 
L 137.011932 174.2 
L 137.011932 131.920698 
L 131.667614 131.920698 
z
" clip-path="url(#pafb4936978)" style="fill: #ff6266"/>
   </g>
   <g id="patch_17">
    <path d="M 137.011932 174.2 
L 142.35625 174.2 
L 142.35625 134.258398 
L 137.011932 134.258398 
z
" clip-path="url(#pafb4936978)" style="fill: #ff6266"/>
   </g>
   <g id="patch_18">
    <path d="M 142.35625 174.2 
L 147.700568 174.2 
L 147.700568 139.374323 
L 142.35625 139.374323 
z
" clip-path="url(#pafb4936978)" style="fill: #ff6266"/>
   </g>
   <g id="patch_19">
    <path d="M 147.700568 174.2 
L 153.044886 174.2 
L 153.044886 146.152394 
L 147.700568 146.152394 
z
" clip-path="url(#pafb4936978)" style="fill: #ff6266"/>
   </g>
   <g id="patch_20">
    <path d="M 153.044886 174.2 
L 158.389205 174.2 
L 158.389205 153.367826 
L 153.044886 153.367826 
z
" clip-path="url(#pafb4936978)" style="fill: #ff6266"/>
   </g>
   <g id="patch_21">
    <path d="M 158.389205 174.2 
L 163.733523 174.2 
L 163.733523 160.00919 
L 158.389205 160.00919 
z
" clip-path="url(#pafb4936978)" style="fill: #ff6266"/>
   </g>
   <g id="patch_22">
    <path d="M 163.733523 174.2 
L 169.077841 174.2 
L 169.077841 165.372888 
L 163.733523 165.372888 
z
" clip-path="url(#pafb4936978)" style="fill: #ff6266"/>
   </g>
   <g id="patch_23">
    <path d="M 169.077841 174.2 
L 174.422159 174.2 
L 174.422159 169.208371 
L 169.077841 169.208371 
z
" clip-path="url(#pafb4936978)" style="fill: #ff6266"/>
   </g>
   <g id="patch_24">
    <path d="M 174.422159 174.2 
L 179.766477 174.2 
L 179.766477 171.648195 
L 174.422159 171.648195 
z
" clip-path="url(#pafb4936978)" style="fill: #ff6266"/>
   </g>
   <g id="patch_25">
    <path d="M 179.766477 174.2 
L 185.110795 174.2 
L 185.110795 173.034711 
L 179.766477 173.034711 
z
" clip-path="url(#pafb4936978)" style="fill: #ff6266"/>
   </g>
   <g id="patch_26">
    <path d="M 185.110795 174.2 
L 190.455114 174.2 
L 190.455114 173.730257 
L 185.110795 173.730257 
z
" clip-path="url(#pafb4936978)" style="fill: #ff6266"/>
   </g>
   <g id="patch_27">
    <path d="M 190.455114 174.2 
L 195.799432 174.2 
L 195.799432 174.034736 
L 190.455114 174.034736 
z
" clip-path="url(#pafb4936978)" style="fill: #ff6266"/>
   </g>
   <g id="patch_28">
    <path d="M 195.799432 174.2 
L 201.14375 174.2 
L 201.14375 174.152259 
L 195.799432 174.152259 
z
" clip-path="url(#pafb4936978)" style="fill: #ff6266"/>
   </g>
   <g id="patch_29">
    <path d="M 201.14375 174.2 
L 206.488068 174.2 
L 206.488068 174.188841 
L 201.14375 174.188841 
z
" clip-path="url(#pafb4936978)" style="fill: #ff6266"/>
   </g>
   <g id="patch_30">
    <path d="M 206.488068 174.2 
L 211.832386 174.2 
L 211.832386 174.198005 
L 206.488068 174.198005 
z
" clip-path="url(#pafb4936978)" style="fill: #ff6266"/>
   </g>
   <g id="patch_31">
    <path d="M 211.832386 174.2 
L 217.176705 174.2 
L 217.176705 174.1998 
L 211.832386 174.1998 
z
" clip-path="url(#pafb4936978)" style="fill: #ff6266"/>
   </g>
   <g id="patch_32">
    <path d="M 217.176705 174.2 
L 222.521023 174.2 
L 222.521023 174.199982 
L 217.176705 174.199982 
z
" clip-path="url(#pafb4936978)" style="fill: #ff6266"/>
   </g>
   <g id="matplotlib.axis_1">
    <g id="xtick_1">
     <g id="line2d_1">
      <defs>
       <path id="m5555b8606b" d="M 0 0 
L 0 3.5 
" style="stroke: #ff6266; stroke-width: 0.8"/>
      </defs>
      <g>
       <use xlink:href="#m5555b8606b" x="54.241252" y="174.2" style="fill: #ff6266; stroke: #ff6266; stroke-width: 0.8"/>
      </g>
     </g>
     <g id="text_1">
      <!-- 300 -->
      <g style="fill: #ff6266" transform="translate(44.697502 188.798438)scale(0.1 -0.1)">
       <defs>
        <path id="DejaVuSans-33" d="M 2597 2516 
Q 3050 2419 3304 2112 
Q 3559 1806 3559 1356 
Q 3559 666 3084 287 
Q 2609 -91 1734 -91 
Q 1441 -91 1130 -33 
Q 819 25 488 141 
L 488 750 
Q 750 597 1062 519 
Q 1375 441 1716 441 
Q 2309 441 2620 675 
Q 2931 909 2931 1356 
Q 2931 1769 2642 2001 
Q 2353 2234 1838 2234 
L 1294 2234 
L 1294 2753 
L 1863 2753 
Q 2328 2753 2575 2939 
Q 2822 3125 2822 3475 
Q 2822 3834 2567 4026 
Q 2313 4219 1838 4219 
Q 1578 4219 1281 4162 
Q 984 4106 628 3988 
L 628 4550 
Q 988 4650 1302 4700 
Q 1616 4750 1894 4750 
Q 2613 4750 3031 4423 
Q 3450 4097 3450 3541 
Q 3450 3153 3228 2886 
Q 3006 2619 2597 2516 
z
" transform="scale(0.015625)"/>
        <path id="DejaVuSans-30" d="M 2034 4250 
Q 1547 4250 1301 3770 
Q 1056 3291 1056 2328 
Q 1056 1369 1301 889 
Q 1547 409 2034 409 
Q 2525 409 2770 889 
Q 3016 1369 3016 2328 
Q 3016 3291 2770 3770 
Q 2525 4250 2034 4250 
z
M 2034 4750 
Q 2819 4750 3233 4129 
Q 3647 3509 3647 2328 
Q 3647 1150 3233 529 
Q 2819 -91 2034 -91 
Q 1250 -91 836 529 
Q 422 1150 422 2328 
Q 422 3509 836 4129 
Q 1250 4750 2034 4750 
z
" transform="scale(0.015625)"/>
       </defs>
       <use xlink:href="#DejaVuSans-33"/>
       <use xlink:href="#DejaVuSans-30" x="63.623047"/>
       <use xlink:href="#DejaVuSans-30" x="127.246094"/>
      </g>
     </g>
    </g>
    <g id="xtick_2">
     <g id="line2d_2">
      <g>
       <use xlink:href="#m5555b8606b" x="120.49313" y="174.2" style="fill: #ff6266; stroke: #ff6266; stroke-width: 0.8"/>
      </g>
     </g>
     <g id="text_2">
      <!-- 400 -->
      <g style="fill: #ff6266" transform="translate(110.94938 188.798438)scale(0.1 -0.1)">
       <defs>
        <path id="DejaVuSans-34" d="M 2419 4116 
L 825 1625 
L 2419 1625 
L 2419 4116 
z
M 2253 4666 
L 3047 4666 
L 3047 1625 
L 3713 1625 
L 3713 1100 
L 3047 1100 
L 3047 0 
L 2419 0 
L 2419 1100 
L 313 1100 
L 313 1709 
L 2253 4666 
z
" transform="scale(0.015625)"/>
       </defs>
       <use xlink:href="#DejaVuSans-34"/>
       <use xlink:href="#DejaVuSans-30" x="63.623047"/>
       <use xlink:href="#DejaVuSans-30" x="127.246094"/>
      </g>
     </g>
    </g>
    <g id="xtick_3">
     <g id="line2d_3">
      <g>
       <use xlink:href="#m5555b8606b" x="186.745008" y="174.2" style="fill: #ff6266; stroke: #ff6266; stroke-width: 0.8"/>
      </g>
     </g>
     <g id="text_3">
      <!-- 500 -->
      <g style="fill: #ff6266" transform="translate(177.201258 188.798438)scale(0.1 -0.1)">
       <defs>
        <path id="DejaVuSans-35" d="M 691 4666 
L 3169 4666 
L 3169 4134 
L 1269 4134 
L 1269 2991 
Q 1406 3038 1543 3061 
Q 1681 3084 1819 3084 
Q 2600 3084 3056 2656 
Q 3513 2228 3513 1497 
Q 3513 744 3044 326 
Q 2575 -91 1722 -91 
Q 1428 -91 1123 -41 
Q 819 9 494 109 
L 494 744 
Q 775 591 1075 516 
Q 1375 441 1709 441 
Q 2250 441 2565 725 
Q 2881 1009 2881 1497 
Q 2881 1984 2565 2268 
Q 2250 2553 1709 2553 
Q 1456 2553 1204 2497 
Q 953 2441 691 2322 
L 691 4666 
z
" transform="scale(0.015625)"/>
       </defs>
       <use xlink:href="#DejaVuSans-35"/>
       <use xlink:href="#DejaVuSans-30" x="63.623047"/>
       <use xlink:href="#DejaVuSans-30" x="127.246094"/>
      </g>
     </g>
    </g>
    <g id="text_4">
     <!-- Fitness (initial) -->
     <g style="fill: #ff6266" transform="translate(91.183594 202.529687)scale(0.1 -0.1)">
      <defs>
       <path id="DejaVuSansMono-46" d="M 728 4666 
L 3475 4666 
L 3475 4134 
L 1363 4134 
L 1363 2759 
L 3278 2759 
L 3278 2228 
L 1363 2228 
L 1363 0 
L 728 0 
L 728 4666 
z
" transform="scale(0.015625)"/>
       <path id="DejaVuSansMono-69" d="M 800 3500 
L 2272 3500 
L 2272 447 
L 3413 447 
L 3413 0 
L 556 0 
L 556 447 
L 1697 447 
L 1697 3053 
L 800 3053 
L 800 3500 
z
M 1697 4863 
L 2272 4863 
L 2272 4134 
L 1697 4134 
L 1697 4863 
z
" transform="scale(0.015625)"/>
       <path id="DejaVuSansMono-74" d="M 1919 4494 
L 1919 3500 
L 3225 3500 
L 3225 3053 
L 1919 3053 
L 1919 1153 
Q 1919 766 2066 612 
Q 2213 459 2578 459 
L 3225 459 
L 3225 0 
L 2522 0 
Q 1875 0 1609 259 
Q 1344 519 1344 1153 
L 1344 3053 
L 409 3053 
L 409 3500 
L 1344 3500 
L 1344 4494 
L 1919 4494 
z
" transform="scale(0.015625)"/>
       <path id="DejaVuSansMono-6e" d="M 3284 2169 
L 3284 0 
L 2706 0 
L 2706 2169 
Q 2706 2641 2540 2862 
Q 2375 3084 2022 3084 
Q 1619 3084 1401 2798 
Q 1184 2513 1184 1978 
L 1184 0 
L 609 0 
L 609 3500 
L 1184 3500 
L 1184 2975 
Q 1338 3275 1600 3429 
Q 1863 3584 2222 3584 
Q 2756 3584 3020 3232 
Q 3284 2881 3284 2169 
z
" transform="scale(0.015625)"/>
       <path id="DejaVuSansMono-65" d="M 3475 1894 
L 3475 1613 
L 984 1613 
L 984 1594 
Q 984 1022 1282 709 
Q 1581 397 2125 397 
Q 2400 397 2700 484 
Q 3000 572 3341 750 
L 3341 178 
Q 3013 44 2708 -23 
Q 2403 -91 2119 -91 
Q 1303 -91 843 398 
Q 384 888 384 1747 
Q 384 2584 834 3084 
Q 1284 3584 2034 3584 
Q 2703 3584 3089 3131 
Q 3475 2678 3475 1894 
z
M 2900 2063 
Q 2888 2569 2661 2833 
Q 2434 3097 2009 3097 
Q 1594 3097 1325 2822 
Q 1056 2547 1006 2059 
L 2900 2063 
z
" transform="scale(0.015625)"/>
       <path id="DejaVuSansMono-73" d="M 3041 3378 
L 3041 2816 
Q 2794 2959 2544 3031 
Q 2294 3103 2034 3103 
Q 1644 3103 1451 2976 
Q 1259 2850 1259 2591 
Q 1259 2356 1403 2240 
Q 1547 2125 2119 2016 
L 2350 1972 
Q 2778 1891 2998 1647 
Q 3219 1403 3219 1013 
Q 3219 494 2850 201 
Q 2481 -91 1825 -91 
Q 1566 -91 1281 -36 
Q 997 19 666 128 
L 666 722 
Q 988 556 1281 473 
Q 1575 391 1838 391 
Q 2219 391 2428 545 
Q 2638 700 2638 978 
Q 2638 1378 1872 1531 
L 1847 1538 
L 1631 1581 
Q 1134 1678 906 1908 
Q 678 2138 678 2534 
Q 678 3038 1018 3311 
Q 1359 3584 1991 3584 
Q 2272 3584 2531 3532 
Q 2791 3481 3041 3378 
z
" transform="scale(0.015625)"/>
       <path id="DejaVuSansMono-20" transform="scale(0.015625)"/>
       <path id="DejaVuSansMono-28" d="M 2766 4856 
Q 2350 4144 2145 3436 
Q 1941 2728 1941 2009 
Q 1941 1294 2145 584 
Q 2350 -125 2766 -844 
L 2266 -844 
Q 1794 -100 1562 604 
Q 1331 1309 1331 2009 
Q 1331 2706 1562 3412 
Q 1794 4119 2266 4856 
L 2766 4856 
z
" transform="scale(0.015625)"/>
       <path id="DejaVuSansMono-61" d="M 2194 1759 
L 2003 1759 
Q 1500 1759 1245 1582 
Q 991 1406 991 1056 
Q 991 741 1181 566 
Q 1372 391 1709 391 
Q 2184 391 2456 720 
Q 2728 1050 2731 1631 
L 2731 1759 
L 2194 1759 
z
M 3309 1997 
L 3309 0 
L 2731 0 
L 2731 519 
Q 2547 206 2267 57 
Q 1988 -91 1588 -91 
Q 1053 -91 734 211 
Q 416 513 416 1019 
Q 416 1603 808 1906 
Q 1200 2209 1959 2209 
L 2731 2209 
L 2731 2300 
Q 2728 2719 2518 2908 
Q 2309 3097 1850 3097 
Q 1556 3097 1256 3012 
Q 956 2928 672 2766 
L 672 3341 
Q 991 3463 1283 3523 
Q 1575 3584 1850 3584 
Q 2284 3584 2592 3456 
Q 2900 3328 3091 3072 
Q 3209 2916 3259 2686 
Q 3309 2456 3309 1997 
z
" transform="scale(0.015625)"/>
       <path id="DejaVuSansMono-6c" d="M 1997 1269 
Q 1997 881 2139 684 
Q 2281 488 2559 488 
L 3231 488 
L 3231 0 
L 2503 0 
Q 1988 0 1705 331 
Q 1422 663 1422 1269 
L 1422 4447 
L 500 4447 
L 500 4897 
L 1997 4897 
L 1997 1269 
z
" transform="scale(0.015625)"/>
       <path id="DejaVuSansMono-29" d="M 1088 4856 
L 1588 4856 
Q 2059 4119 2290 3412 
Q 2522 2706 2522 2009 
Q 2522 1306 2290 600 
Q 2059 -106 1588 -844 
L 1088 -844 
Q 1503 -119 1708 590 
Q 1913 1300 1913 2009 
Q 1913 2722 1708 3431 
Q 1503 4141 1088 4856 
z
" transform="scale(0.015625)"/>
      </defs>
      <use xlink:href="#DejaVuSansMono-46"/>
      <use xlink:href="#DejaVuSansMono-69" x="60.205078"/>
      <use xlink:href="#DejaVuSansMono-74" x="120.410156"/>
      <use xlink:href="#DejaVuSansMono-6e" x="180.615234"/>
      <use xlink:href="#DejaVuSansMono-65" x="240.820312"/>
      <use xlink:href="#DejaVuSansMono-73" x="301.025391"/>
      <use xlink:href="#DejaVuSansMono-73" x="361.230469"/>
      <use xlink:href="#DejaVuSansMono-20" x="421.435547"/>
      <use xlink:href="#DejaVuSansMono-28" x="481.640625"/>
      <use xlink:href="#DejaVuSansMono-69" x="541.845703"/>
      <use xlink:href="#DejaVuSansMono-6e" x="602.050781"/>
      <use xlink:href="#DejaVuSansMono-69" x="662.255859"/>
      <use xlink:href="#DejaVuSansMono-74" x="722.460938"/>
      <use xlink:href="#DejaVuSansMono-69" x="782.666016"/>
      <use xlink:href="#DejaVuSansMono-61" x="842.871094"/>
      <use xlink:href="#DejaVuSansMono-6c" x="903.076172"/>
      <use xlink:href="#DejaVuSansMono-29" x="963.28125"/>
     </g>
    </g>
   </g>
   <g id="matplotlib.axis_2">
    <g id="ytick_1">
     <g id="line2d_4">
      <defs>
       <path id="m2c4661f1b5" d="M 0 0 
L -3.5 0 
" style="stroke: #ff6266; stroke-width: 0.8"/>
      </defs>
      <g>
       <use xlink:href="#m2c4661f1b5" x="54.175" y="174.2" style="fill: #ff6266; stroke: #ff6266; stroke-width: 0.8"/>
      </g>
     </g>
     <g id="text_5">
      <!-- 0.00 -->
      <g style="fill: #ff6266" transform="translate(24.909375 177.999219)scale(0.1 -0.1)">
       <defs>
        <path id="DejaVuSans-2e" d="M 684 794 
L 1344 794 
L 1344 0 
L 684 0 
L 684 794 
z
" transform="scale(0.015625)"/>
       </defs>
       <use xlink:href="#DejaVuSans-30"/>
       <use xlink:href="#DejaVuSans-2e" x="63.623047"/>
       <use xlink:href="#DejaVuSans-30" x="95.410156"/>
       <use xlink:href="#DejaVuSans-30" x="159.033203"/>
      </g>
     </g>
    </g>
    <g id="ytick_2">
     <g id="line2d_5">
      <g>
       <use xlink:href="#m2c4661f1b5" x="54.175" y="145.412987" style="fill: #ff6266; stroke: #ff6266; stroke-width: 0.8"/>
      </g>
     </g>
     <g id="text_6">
      <!-- 0.01 -->
      <g style="fill: #ff6266" transform="translate(24.909375 149.212206)scale(0.1 -0.1)">
       <defs>
        <path id="DejaVuSans-31" d="M 794 531 
L 1825 531 
L 1825 4091 
L 703 3866 
L 703 4441 
L 1819 4666 
L 2450 4666 
L 2450 531 
L 3481 531 
L 3481 0 
L 794 0 
L 794 531 
z
" transform="scale(0.015625)"/>
       </defs>
       <use xlink:href="#DejaVuSans-30"/>
       <use xlink:href="#DejaVuSans-2e" x="63.623047"/>
       <use xlink:href="#DejaVuSans-30" x="95.410156"/>
       <use xlink:href="#DejaVuSans-31" x="159.033203"/>
      </g>
     </g>
    </g>
    <g id="ytick_3">
     <g id="line2d_6">
      <g>
       <use xlink:href="#m2c4661f1b5" x="54.175" y="116.625975" style="fill: #ff6266; stroke: #ff6266; stroke-width: 0.8"/>
      </g>
     </g>
     <g id="text_7">
      <!-- 0.02 -->
      <g style="fill: #ff6266" transform="translate(24.909375 120.425194)scale(0.1 -0.1)">
       <defs>
        <path id="DejaVuSans-32" d="M 1228 531 
L 3431 531 
L 3431 0 
L 469 0 
L 469 531 
Q 828 903 1448 1529 
Q 2069 2156 2228 2338 
Q 2531 2678 2651 2914 
Q 2772 3150 2772 3378 
Q 2772 3750 2511 3984 
Q 2250 4219 1831 4219 
Q 1534 4219 1204 4116 
Q 875 4013 500 3803 
L 500 4441 
Q 881 4594 1212 4672 
Q 1544 4750 1819 4750 
Q 2544 4750 2975 4387 
Q 3406 4025 3406 3419 
Q 3406 3131 3298 2873 
Q 3191 2616 2906 2266 
Q 2828 2175 2409 1742 
Q 1991 1309 1228 531 
z
" transform="scale(0.015625)"/>
       </defs>
       <use xlink:href="#DejaVuSans-30"/>
       <use xlink:href="#DejaVuSans-2e" x="63.623047"/>
       <use xlink:href="#DejaVuSans-30" x="95.410156"/>
       <use xlink:href="#DejaVuSans-32" x="159.033203"/>
      </g>
     </g>
    </g>
    <g id="ytick_4">
     <g id="line2d_7">
      <g>
       <use xlink:href="#m2c4661f1b5" x="54.175" y="87.838962" style="fill: #ff6266; stroke: #ff6266; stroke-width: 0.8"/>
      </g>
     </g>
     <g id="text_8">
      <!-- 0.03 -->
      <g style="fill: #ff6266" transform="translate(24.909375 91.638181)scale(0.1 -0.1)">
       <use xlink:href="#DejaVuSans-30"/>
       <use xlink:href="#DejaVuSans-2e" x="63.623047"/>
       <use xlink:href="#DejaVuSans-30" x="95.410156"/>
       <use xlink:href="#DejaVuSans-33" x="159.033203"/>
      </g>
     </g>
    </g>
    <g id="ytick_5">
     <g id="line2d_8">
      <g>
       <use xlink:href="#m2c4661f1b5" x="54.175" y="59.05195" style="fill: #ff6266; stroke: #ff6266; stroke-width: 0.8"/>
      </g>
     </g>
     <g id="text_9">
      <!-- 0.04 -->
      <g style="fill: #ff6266" transform="translate(24.909375 62.851168)scale(0.1 -0.1)">
       <use xlink:href="#DejaVuSans-30"/>
       <use xlink:href="#DejaVuSans-2e" x="63.623047"/>
       <use xlink:href="#DejaVuSans-30" x="95.410156"/>
       <use xlink:href="#DejaVuSans-34" x="159.033203"/>
      </g>
     </g>
    </g>
    <g id="ytick_6">
     <g id="line2d_9">
      <g>
       <use xlink:href="#m2c4661f1b5" x="54.175" y="30.264937" style="fill: #ff6266; stroke: #ff6266; stroke-width: 0.8"/>
      </g>
     </g>
     <g id="text_10">
      <!-- 0.05 -->
      <g style="fill: #ff6266" transform="translate(24.909375 34.064156)scale(0.1 -0.1)">
       <use xlink:href="#DejaVuSans-30"/>
       <use xlink:href="#DejaVuSans-2e" x="63.623047"/>
       <use xlink:href="#DejaVuSans-30" x="95.410156"/>
       <use xlink:href="#DejaVuSans-35" x="159.033203"/>
      </g>
     </g>
    </g>
    <g id="text_11">
     <!-- Density -->
     <g style="fill: #ff6266" transform="translate(18.829688 113.571094)rotate(-90)scale(0.1 -0.1)">
      <defs>
       <path id="DejaVuSansMono-44" d="M 1363 519 
Q 2159 519 2475 911 
Q 2791 1303 2791 2328 
Q 2791 3363 2477 3755 
Q 2163 4147 1363 4147 
L 1063 4147 
L 1063 519 
L 1363 519 
z
M 1375 4666 
Q 2444 4666 2950 4097 
Q 3456 3528 3456 2328 
Q 3456 1134 2950 567 
Q 2444 0 1375 0 
L 428 0 
L 428 4666 
L 1375 4666 
z
" transform="scale(0.015625)"/>
       <path id="DejaVuSansMono-79" d="M 2681 1125 
Q 2538 759 2316 163 
Q 2006 -663 1900 -844 
Q 1756 -1088 1540 -1209 
Q 1325 -1331 1038 -1331 
L 575 -1331 
L 575 -850 
L 916 -850 
Q 1169 -850 1312 -703 
Q 1456 -556 1678 56 
L 325 3500 
L 934 3500 
L 1972 763 
L 2994 3500 
L 3603 3500 
L 2681 1125 
z
" transform="scale(0.015625)"/>
      </defs>
      <use xlink:href="#DejaVuSansMono-44"/>
      <use xlink:href="#DejaVuSansMono-65" x="60.205078"/>
      <use xlink:href="#DejaVuSansMono-6e" x="120.410156"/>
      <use xlink:href="#DejaVuSansMono-73" x="180.615234"/>
      <use xlink:href="#DejaVuSansMono-69" x="240.820312"/>
      <use xlink:href="#DejaVuSansMono-74" x="301.025391"/>
      <use xlink:href="#DejaVuSansMono-79" x="361.230469"/>
     </g>
    </g>
   </g>
   <g id="patch_33">
    <path d="M 54.175 174.2 
L 54.175 10.8 
" style="fill: none"/>
   </g>
   <g id="patch_34">
    <path d="M 230.5375 174.2 
L 230.5375 10.8 
" style="fill: none"/>
   </g>
   <g id="patch_35">
    <path d="M 54.175 174.2 
L 230.5375 174.2 
" style="fill: none"/>
   </g>
   <g id="patch_36">
    <path d="M 54.175 10.8 
L 230.5375 10.8 
" style="fill: none"/>
   </g>
  </g>
  <g id="axes_2">
   <g id="patch_37">
    <path d="M 244.8375 174.2 
L 421.2 174.2 
L 421.2 10.8 
L 244.8375 10.8 
L 244.8375 174.2 
z
" style="fill: none"/>
   </g>
   <g id="patch_38">
    <path d="M 252.853977 174.2 
L 258.198295 174.2 
L 258.198295 174.199912 
L 252.853977 174.199912 
z
" clip-path="url(#p54930b5f16)" style="fill: #ff6266"/>
   </g>
   <g id="patch_39">
    <path d="M 258.198295 174.2 
L 263.542614 174.2 
L 263.542614 174.199196 
L 258.198295 174.199196 
z
" clip-path="url(#p54930b5f16)" style="fill: #ff6266"/>
   </g>
   <g id="patch_40">
    <path d="M 263.542614 174.2 
L 268.886932 174.2 
L 268.886932 174.197525 
L 263.542614 174.197525 
z
" clip-path="url(#p54930b5f16)" style="fill: #ff6266"/>
   </g>
   <g id="patch_41">
    <path d="M 268.886932 174.2 
L 274.23125 174.2 
L 274.23125 174.188617 
L 268.886932 174.188617 
z
" clip-path="url(#p54930b5f16)" style="fill: #ff6266"/>
   </g>
   <g id="patch_42">
    <path d="M 274.23125 174.2 
L 279.575568 174.2 
L 279.575568 174.175487 
L 274.23125 174.175487 
z
" clip-path="url(#p54930b5f16)" style="fill: #ff6266"/>
   </g>
   <g id="patch_43">
    <path d="M 279.575568 174.2 
L 284.919886 174.2 
L 284.919886 174.084604 
L 279.575568 174.084604 
z
" clip-path="url(#p54930b5f16)" style="fill: #ff6266"/>
   </g>
   <g id="patch_44">
    <path d="M 284.919886 174.2 
L 290.264205 174.2 
L 290.264205 173.816513 
L 284.919886 173.816513 
z
" clip-path="url(#p54930b5f16)" style="fill: #ff6266"/>
   </g>
   <g id="patch_45">
    <path d="M 290.264205 174.2 
L 295.608523 174.2 
L 295.608523 173.472868 
L 290.264205 173.472868 
z
" clip-path="url(#p54930b5f16)" style="fill: #ff6266"/>
   </g>
   <g id="patch_46">
    <path d="M 295.608523 174.2 
L 300.952841 174.2 
L 300.952841 172.220157 
L 295.608523 172.220157 
z
" clip-path="url(#p54930b5f16)" style="fill: #ff6266"/>
   </g>
   <g id="patch_47">
    <path d="M 300.952841 174.2 
L 306.297159 174.2 
L 306.297159 171.536062 
L 300.952841 171.536062 
z
" clip-path="url(#p54930b5f16)" style="fill: #ff6266"/>
   </g>
   <g id="patch_48">
    <path d="M 306.297159 174.2 
L 311.641477 174.2 
L 311.641477 167.465558 
L 306.297159 167.465558 
z
" clip-path="url(#p54930b5f16)" style="fill: #ff6266"/>
   </g>
   <g id="patch_49">
    <path d="M 311.641477 174.2 
L 316.985795 174.2 
L 316.985795 160.853609 
L 311.641477 160.853609 
z
" clip-path="url(#p54930b5f16)" style="fill: #ff6266"/>
   </g>
   <g id="patch_50">
    <path d="M 316.985795 174.2 
L 322.330114 174.2 
L 322.330114 155.123087 
L 316.985795 155.123087 
z
" clip-path="url(#p54930b5f16)" style="fill: #ff6266"/>
   </g>
   <g id="patch_51">
    <path d="M 322.330114 174.2 
L 327.674432 174.2 
L 327.674432 127.846693 
L 322.330114 127.846693 
z
" clip-path="url(#p54930b5f16)" style="fill: #ff6266"/>
   </g>
   <g id="patch_52">
    <path d="M 327.674432 174.2 
L 333.01875 174.2 
L 333.01875 112.850998 
L 327.674432 112.850998 
z
" clip-path="url(#p54930b5f16)" style="fill: #ff6266"/>
   </g>
   <g id="patch_53">
    <path d="M 333.01875 174.2 
L 338.363068 174.2 
L 338.363068 18.580952 
L 333.01875 18.580952 
z
" clip-path="url(#p54930b5f16)" style="fill: #ff6266"/>
   </g>
   <g id="patch_54">
    <path d="M 338.363068 174.2 
L 343.707386 174.2 
L 343.707386 127.8385 
L 338.363068 127.8385 
z
" clip-path="url(#p54930b5f16)" style="fill: #ff6266"/>
   </g>
   <g id="patch_55">
    <path d="M 343.707386 174.2 
L 349.051705 174.2 
L 349.051705 155.114075 
L 343.707386 155.114075 
z
" clip-path="url(#p54930b5f16)" style="fill: #ff6266"/>
   </g>
   <g id="patch_56">
    <path d="M 349.051705 174.2 
L 354.396023 174.2 
L 354.396023 160.863013 
L 349.051705 160.863013 
z
" clip-path="url(#p54930b5f16)" style="fill: #ff6266"/>
   </g>
   <g id="patch_57">
    <path d="M 354.396023 174.2 
L 359.740341 174.2 
L 359.740341 168.930897 
L 354.396023 168.930897 
z
" clip-path="url(#p54930b5f16)" style="fill: #ff6266"/>
   </g>
   <g id="patch_58">
    <path d="M 359.740341 174.2 
L 365.084659 174.2 
L 365.084659 170.06784 
L 359.740341 170.06784 
z
" clip-path="url(#p54930b5f16)" style="fill: #ff6266"/>
   </g>
   <g id="patch_59">
    <path d="M 365.084659 174.2 
L 370.428977 174.2 
L 370.428977 172.218102 
L 365.084659 172.218102 
z
" clip-path="url(#p54930b5f16)" style="fill: #ff6266"/>
   </g>
   <g id="patch_60">
    <path d="M 370.428977 174.2 
L 375.773295 174.2 
L 375.773295 173.474155 
L 370.428977 173.474155 
z
" clip-path="url(#p54930b5f16)" style="fill: #ff6266"/>
   </g>
   <g id="patch_61">
    <path d="M 375.773295 174.2 
L 381.117614 174.2 
L 381.117614 173.817185 
L 375.773295 173.817185 
z
" clip-path="url(#p54930b5f16)" style="fill: #ff6266"/>
   </g>
   <g id="patch_62">
    <path d="M 381.117614 174.2 
L 386.461932 174.2 
L 386.461932 174.103348 
L 381.117614 174.103348 
z
" clip-path="url(#p54930b5f16)" style="fill: #ff6266"/>
   </g>
   <g id="patch_63">
    <path d="M 386.461932 174.2 
L 391.80625 174.2 
L 391.80625 174.156324 
L 386.461932 174.156324 
z
" clip-path="url(#p54930b5f16)" style="fill: #ff6266"/>
   </g>
   <g id="patch_64">
    <path d="M 391.80625 174.2 
L 397.150568 174.2 
L 397.150568 174.188469 
L 391.80625 174.188469 
z
" clip-path="url(#p54930b5f16)" style="fill: #ff6266"/>
   </g>
   <g id="patch_65">
    <path d="M 397.150568 174.2 
L 402.494886 174.2 
L 402.494886 174.197517 
L 397.150568 174.197517 
z
" clip-path="url(#p54930b5f16)" style="fill: #ff6266"/>
   </g>
   <g id="patch_66">
    <path d="M 402.494886 174.2 
L 407.839205 174.2 
L 407.839205 174.199196 
L 402.494886 174.199196 
z
" clip-path="url(#p54930b5f16)" style="fill: #ff6266"/>
   </g>
   <g id="patch_67">
    <path d="M 407.839205 174.2 
L 413.183523 174.2 
L 413.183523 174.19992 
L 407.839205 174.19992 
z
" clip-path="url(#p54930b5f16)" style="fill: #ff6266"/>
   </g>
   <g id="matplotlib.axis_3">
    <g id="xtick_4">
     <g id="line2d_10">
      <g>
       <use xlink:href="#m5555b8606b" x="258.792109" y="174.2" style="fill: #ff6266; stroke: #ff6266; stroke-width: 0.8"/>
      </g>
     </g>
     <g id="text_12">
      <!-- −100 -->
      <g style="fill: #ff6266" transform="translate(245.058515 188.798438)scale(0.1 -0.1)">
       <defs>
        <path id="DejaVuSans-2212" d="M 678 2272 
L 4684 2272 
L 4684 1741 
L 678 1741 
L 678 2272 
z
" transform="scale(0.015625)"/>
       </defs>
       <use xlink:href="#DejaVuSans-2212"/>
       <use xlink:href="#DejaVuSans-31" x="83.789062"/>
       <use xlink:href="#DejaVuSans-30" x="147.412109"/>
       <use xlink:href="#DejaVuSans-30" x="211.035156"/>
      </g>
     </g>
    </g>
    <g id="xtick_5">
     <g id="line2d_11">
      <g>
       <use xlink:href="#m5555b8606b" x="295.905429" y="174.2" style="fill: #ff6266; stroke: #ff6266; stroke-width: 0.8"/>
      </g>
     </g>
     <g id="text_13">
      <!-- −50 -->
      <g style="fill: #ff6266" transform="translate(285.353086 188.798438)scale(0.1 -0.1)">
       <use xlink:href="#DejaVuSans-2212"/>
       <use xlink:href="#DejaVuSans-35" x="83.789062"/>
       <use xlink:href="#DejaVuSans-30" x="147.412109"/>
      </g>
     </g>
    </g>
    <g id="xtick_6">
     <g id="line2d_12">
      <g>
       <use xlink:href="#m5555b8606b" x="333.01875" y="174.2" style="fill: #ff6266; stroke: #ff6266; stroke-width: 0.8"/>
      </g>
     </g>
     <g id="text_14">
      <!-- 0 -->
      <g style="fill: #ff6266" transform="translate(329.8375 188.798438)scale(0.1 -0.1)">
       <use xlink:href="#DejaVuSans-30"/>
      </g>
     </g>
    </g>
    <g id="xtick_7">
     <g id="line2d_13">
      <g>
       <use xlink:href="#m5555b8606b" x="370.132071" y="174.2" style="fill: #ff6266; stroke: #ff6266; stroke-width: 0.8"/>
      </g>
     </g>
     <g id="text_15">
      <!-- 50 -->
      <g style="fill: #ff6266" transform="translate(363.769571 188.798438)scale(0.1 -0.1)">
       <use xlink:href="#DejaVuSans-35"/>
       <use xlink:href="#DejaVuSans-30" x="63.623047"/>
      </g>
     </g>
    </g>
    <g id="xtick_8">
     <g id="line2d_14">
      <g>
       <use xlink:href="#m5555b8606b" x="407.245391" y="174.2" style="fill: #ff6266; stroke: #ff6266; stroke-width: 0.8"/>
      </g>
     </g>
     <g id="text_16">
      <!-- 100 -->
      <g style="fill: #ff6266" transform="translate(397.701641 188.798438)scale(0.1 -0.1)">
       <use xlink:href="#DejaVuSans-31"/>
       <use xlink:href="#DejaVuSans-30" x="63.623047"/>
       <use xlink:href="#DejaVuSans-30" x="127.246094"/>
      </g>
     </g>
    </g>
    <g id="text_17">
     <!-- Fitness (improvement) -->
     <g style="fill: #ff6266" transform="translate(269.805469 202.529687)scale(0.1 -0.1)">
      <defs>
       <path id="DejaVuSansMono-6d" d="M 2113 3144 
Q 2219 3369 2383 3476 
Q 2547 3584 2778 3584 
Q 3200 3584 3373 3257 
Q 3547 2931 3547 2028 
L 3547 0 
L 3022 0 
L 3022 2003 
Q 3022 2744 2939 2923 
Q 2856 3103 2638 3103 
Q 2388 3103 2295 2911 
Q 2203 2719 2203 2003 
L 2203 0 
L 1678 0 
L 1678 2003 
Q 1678 2753 1589 2928 
Q 1500 3103 1269 3103 
Q 1041 3103 952 2911 
Q 863 2719 863 2003 
L 863 0 
L 341 0 
L 341 3500 
L 863 3500 
L 863 3200 
Q 966 3388 1120 3486 
Q 1275 3584 1472 3584 
Q 1709 3584 1867 3475 
Q 2025 3366 2113 3144 
z
" transform="scale(0.015625)"/>
       <path id="DejaVuSansMono-70" d="M 1172 441 
L 1172 -1331 
L 594 -1331 
L 594 3500 
L 1172 3500 
L 1172 3053 
Q 1316 3313 1555 3448 
Q 1794 3584 2106 3584 
Q 2741 3584 3102 3093 
Q 3463 2603 3463 1734 
Q 3463 881 3100 395 
Q 2738 -91 2106 -91 
Q 1788 -91 1548 45 
Q 1309 181 1172 441 
z
M 2859 1747 
Q 2859 2416 2648 2756 
Q 2438 3097 2022 3097 
Q 1603 3097 1387 2755 
Q 1172 2413 1172 1747 
Q 1172 1084 1387 740 
Q 1603 397 2022 397 
Q 2438 397 2648 737 
Q 2859 1078 2859 1747 
z
" transform="scale(0.015625)"/>
       <path id="DejaVuSansMono-72" d="M 3609 2778 
Q 3425 2922 3234 2987 
Q 3044 3053 2816 3053 
Q 2278 3053 1993 2715 
Q 1709 2378 1709 1741 
L 1709 0 
L 1131 0 
L 1131 3500 
L 1709 3500 
L 1709 2816 
Q 1853 3188 2151 3386 
Q 2450 3584 2859 3584 
Q 3072 3584 3256 3531 
Q 3441 3478 3609 3366 
L 3609 2778 
z
" transform="scale(0.015625)"/>
       <path id="DejaVuSansMono-6f" d="M 1925 3097 
Q 1488 3097 1263 2756 
Q 1038 2416 1038 1747 
Q 1038 1081 1263 739 
Q 1488 397 1925 397 
Q 2366 397 2591 739 
Q 2816 1081 2816 1747 
Q 2816 2416 2591 2756 
Q 2366 3097 1925 3097 
z
M 1925 3584 
Q 2653 3584 3039 3112 
Q 3425 2641 3425 1747 
Q 3425 850 3040 379 
Q 2656 -91 1925 -91 
Q 1197 -91 812 379 
Q 428 850 428 1747 
Q 428 2641 812 3112 
Q 1197 3584 1925 3584 
z
" transform="scale(0.015625)"/>
       <path id="DejaVuSansMono-76" d="M 313 3500 
L 909 3500 
L 1925 563 
L 2944 3500 
L 3541 3500 
L 2297 0 
L 1556 0 
L 313 3500 
z
" transform="scale(0.015625)"/>
      </defs>
      <use xlink:href="#DejaVuSansMono-46"/>
      <use xlink:href="#DejaVuSansMono-69" x="60.205078"/>
      <use xlink:href="#DejaVuSansMono-74" x="120.410156"/>
      <use xlink:href="#DejaVuSansMono-6e" x="180.615234"/>
      <use xlink:href="#DejaVuSansMono-65" x="240.820312"/>
      <use xlink:href="#DejaVuSansMono-73" x="301.025391"/>
      <use xlink:href="#DejaVuSansMono-73" x="361.230469"/>
      <use xlink:href="#DejaVuSansMono-20" x="421.435547"/>
      <use xlink:href="#DejaVuSansMono-28" x="481.640625"/>
      <use xlink:href="#DejaVuSansMono-69" x="541.845703"/>
      <use xlink:href="#DejaVuSansMono-6d" x="602.050781"/>
      <use xlink:href="#DejaVuSansMono-70" x="662.255859"/>
      <use xlink:href="#DejaVuSansMono-72" x="722.460938"/>
      <use xlink:href="#DejaVuSansMono-6f" x="782.666016"/>
      <use xlink:href="#DejaVuSansMono-76" x="842.871094"/>
      <use xlink:href="#DejaVuSansMono-65" x="903.076172"/>
      <use xlink:href="#DejaVuSansMono-6d" x="963.28125"/>
      <use xlink:href="#DejaVuSansMono-65" x="1023.486328"/>
      <use xlink:href="#DejaVuSansMono-6e" x="1083.691406"/>
      <use xlink:href="#DejaVuSansMono-74" x="1143.896484"/>
      <use xlink:href="#DejaVuSansMono-29" x="1204.101562"/>
     </g>
    </g>
   </g>
   <g id="matplotlib.axis_4">
    <g id="ytick_7">
     <g id="line2d_15">
      <g>
       <use xlink:href="#m2c4661f1b5" x="244.8375" y="174.2" style="fill: #ff6266; stroke: #ff6266; stroke-width: 0.8"/>
      </g>
     </g>
    </g>
    <g id="ytick_8">
     <g id="line2d_16">
      <g>
       <use xlink:href="#m2c4661f1b5" x="244.8375" y="145.412987" style="fill: #ff6266; stroke: #ff6266; stroke-width: 0.8"/>
      </g>
     </g>
    </g>
    <g id="ytick_9">
     <g id="line2d_17">
      <g>
       <use xlink:href="#m2c4661f1b5" x="244.8375" y="116.625975" style="fill: #ff6266; stroke: #ff6266; stroke-width: 0.8"/>
      </g>
     </g>
    </g>
    <g id="ytick_10">
     <g id="line2d_18">
      <g>
       <use xlink:href="#m2c4661f1b5" x="244.8375" y="87.838962" style="fill: #ff6266; stroke: #ff6266; stroke-width: 0.8"/>
      </g>
     </g>
    </g>
    <g id="ytick_11">
     <g id="line2d_19">
      <g>
       <use xlink:href="#m2c4661f1b5" x="244.8375" y="59.05195" style="fill: #ff6266; stroke: #ff6266; stroke-width: 0.8"/>
      </g>
     </g>
    </g>
    <g id="ytick_12">
     <g id="line2d_20">
      <g>
       <use xlink:href="#m2c4661f1b5" x="244.8375" y="30.264937" style="fill: #ff6266; stroke: #ff6266; stroke-width: 0.8"/>
      </g>
     </g>
    </g>
   </g>
   <g id="patch_68">
    <path d="M 244.8375 174.2 
L 244.8375 10.8 
" style="fill: none"/>
   </g>
   <g id="patch_69">
    <path d="M 421.2 174.2 
L 421.2 10.8 
" style="fill: none"/>
   </g>
   <g id="patch_70">
    <path d="M 244.8375 174.2 
L 421.2 174.2 
" style="fill: none"/>
   </g>
   <g id="patch_71">
    <path d="M 244.8375 10.8 
L 421.2 10.8 
" style="fill: none"/>
   </g>
  </g>
 </g>
 <defs>
  <clipPath id="pafb4936978">
   <rect x="54.175" y="10.8" width="176.3625" height="163.4"/>
  </clipPath>
  <clipPath id="p54930b5f16">
   <rect x="244.8375" y="10.8" width="176.3625" height="163.4"/>
  </clipPath>
 </defs>
</svg>
